<svg width="47" height="47" viewBox="0 0 47 47" fill="none" xmlns="http://www.w3.org/2000/svg">
<path d="M21.1588 0.0642853C14.9992 0.72522 9.41797 3.6719 5.48906 8.35354C2.72598 11.6399 1.00937 15.3668 0.247461 19.7364C0.0730469 20.7369 0.0546875 21.2235 0.0546875 23.5C0.0546875 25.7766 0.0730469 26.2631 0.247461 27.2637C1.11035 32.2207 3.18496 36.324 6.60898 39.8766C10.1248 43.5301 14.5586 45.8434 19.7359 46.7522C20.7365 46.9266 21.223 46.9449 23.4996 46.9449C26.3729 46.9449 27.2357 46.8531 29.4939 46.2748C37.5812 44.1819 44.1814 37.5817 46.2744 29.4944C46.8527 27.2362 46.9445 26.3733 46.9445 23.5C46.9445 21.2235 46.9262 20.7369 46.7518 19.7364C45.843 14.559 43.5205 10.1252 39.8762 6.6094C36.3328 3.19456 32.1928 1.10159 27.3184 0.266235C26.4279 0.110184 25.7395 0.0642853 23.8668 0.0459251C22.5816 0.027565 21.3607 0.0367432 21.1588 0.0642853ZM26.3453 3.90139C30.8066 4.61741 34.3225 6.40745 37.4527 9.5469C40.1883 12.2733 41.9875 15.4953 42.8137 19.0938C43.4562 21.9303 43.4562 25.0698 42.8137 27.9063C41.7029 32.7899 38.6553 37.141 34.2674 40.0969C32.5783 41.2352 30.0172 42.3276 27.9059 42.8141C25.0693 43.4567 21.9299 43.4567 19.0934 42.8141C14.2098 41.7033 9.85859 38.6557 6.90273 34.2678C5.76445 32.5787 4.67207 30.0176 4.18555 27.9063C3.54297 25.0698 3.54297 21.9303 4.18555 19.0938C5.01172 15.4953 6.81094 12.2733 9.54648 9.5469C13.0072 6.07698 16.9637 4.24104 22.0768 3.72698C22.802 3.65354 25.4916 3.7637 26.3453 3.90139Z" fill="#031059"/>
<path d="M22.6733 12.5945C22.453 12.7139 22.1409 12.9617 21.994 13.1545L21.7095 13.5125L21.6819 17.4965L21.6544 21.4805H17.8265C14.0261 21.4805 13.9894 21.4805 13.5855 21.6824C13.3651 21.8018 13.0622 22.0496 12.9062 22.2424C12.6675 22.5361 12.6216 22.6922 12.594 23.2063C12.5481 24.0141 12.8052 24.5281 13.4478 24.9229L13.8884 25.1982L17.7806 25.2258L21.6636 25.2533V29.0904V32.9275L21.8747 33.3314C22.5448 34.5891 24.4542 34.5891 25.1243 33.3314L25.3355 32.9275V29.0904V25.2533L29.2185 25.2258L33.1106 25.1982L33.5513 24.9229C34.1939 24.5281 34.4509 24.0141 34.405 23.2063C34.3774 22.6922 34.3315 22.5361 34.0929 22.2424C33.9368 22.0496 33.6339 21.8018 33.4136 21.6824C33.0097 21.4805 32.973 21.4805 29.1726 21.4805H25.3446L25.3171 17.4965L25.2896 13.5125L25.005 13.1545C24.647 12.6955 24.0411 12.3926 23.4995 12.3926C23.2425 12.3926 22.9212 12.4752 22.6733 12.5945Z" fill="#031059"/>
</svg>
