<svg width="47" height="47" viewBox="0 0 47 47" fill="none" xmlns="http://www.w3.org/2000/svg">
<path d="M1.175 1.39531C0.146871 2.57031 -4.448e-06 4.62656 0.146871 19.1672L0.367183 35.6172H23.5H46.6328L46.8531 19.1672C47 4.62656 46.8531 2.57031 45.825 1.39531C44.65 0.0734406 43.0344 0 23.5 0C3.96562 0 2.35 0.0734406 1.175 1.39531ZM44.0625 17.9922V33.0469H33.1203H22.1781L21.7375 30.6969C21.5172 29.375 20.4156 27.4656 19.3875 26.3641C18.2125 25.1156 17.7719 24.2344 18.2859 23.9406C19.8281 22.9859 19.1672 18.4328 17.2578 16.5234C12.925 12.1172 5.875 16.8172 7.93125 22.7656C8.66562 24.675 8.51875 25.1891 7.04999 26.8047C6.09531 27.8328 5.14062 29.6688 4.84687 30.8438C4.62656 32.0922 4.1125 33.0469 3.67187 33.0469C3.23125 33.0469 2.9375 27.7594 2.9375 17.9922V2.9375H23.5H44.0625V17.9922ZM16.1562 19.0938C16.7437 20.1219 16.7437 21.0031 16.1562 22.0313C14.7609 24.6016 10.2812 23.5 10.2812 20.5625C10.2812 17.625 14.7609 16.5234 16.1562 19.0938ZM17.8453 28.7141C18.5062 29.5953 19.0937 30.9172 19.0937 31.6516C19.0937 32.9 18.5062 33.0469 13.2187 33.0469C6.4625 33.0469 5.80156 32.2391 9.54687 28.4938C11.4562 26.6578 12.1906 26.3641 14.1734 26.7313C15.4953 26.9516 17.1109 27.9063 17.8453 28.7141Z" fill="black"/>
<path d="M22.0312 15.7891C22.0312 27.1719 22.3984 27.7594 26.9516 24.675C29.3016 23.0594 30.4766 22.7656 35.3969 22.7656H41.125V14.3203V5.875H31.5781H22.0312V15.7891ZM38.5547 14.3203V20.1953L33.0469 20.4156C30.0359 20.5625 27.2453 20.9297 26.8781 21.2969C25.3359 22.8391 24.9688 21.7375 24.9688 15.0547V8.00469L31.7984 8.225L38.5547 8.44531V14.3203Z" fill="black"/>
<path d="M27.5392 11.0156C26.6579 12.4844 28.0532 13.2188 32.0188 13.2188C35.4704 13.2188 35.9845 13.0719 35.9845 11.75C35.9845 10.4281 35.4704 10.2812 32.0188 10.2812C29.8157 10.2812 27.7595 10.575 27.5392 11.0156Z" fill="black"/>
<path d="M27.4655 16.2297C26.5843 17.6984 28.3468 18.4328 32.0187 18.2125C34.7358 18.0656 35.6905 17.6984 35.8374 16.6703C36.0577 15.6422 35.4702 15.4219 32.0187 15.4219C29.8155 15.4219 27.7593 15.7891 27.4655 16.2297Z" fill="black"/>
<path d="M8.44531 40.3906C7.49062 41.4922 6.16875 41.8594 3.525 41.8594C0.88125 41.8594 0 42.1531 0 42.9609C0 43.7688 0.88125 44.0625 3.37812 44.0625C5.65469 44.0625 7.34375 44.5766 8.59219 45.5312C9.62031 46.3391 11.0156 47 11.75 47C12.4109 47 13.5859 46.3391 14.3203 45.5312C15.5687 44.1359 16.5969 44.0625 31.3578 44.0625C44.7969 44.0625 47 43.9156 47 42.9609C47 42.0063 44.7969 41.8594 31.5781 41.8594C17.1109 41.8594 16.0828 41.7859 14.6875 40.3906C13.8797 39.5828 12.4109 38.9219 11.5297 38.9219C10.575 38.9219 9.17969 39.5828 8.44531 40.3906ZM12.7047 42.9609C12.7781 43.3281 12.2641 43.7688 11.6031 43.9156C10.7953 44.0625 10.2812 43.6953 10.2812 42.9609C10.2812 41.7125 12.4844 41.6391 12.7047 42.9609Z" fill="black"/>
</svg>
