<?xml version="1.0" standalone="no"?>
<!DOCTYPE svg PUBLIC "-//W3C//DTD SVG 20010904//EN"
 "http://www.w3.org/TR/2001/REC-SVG-20010904/DTD/svg10.dtd">
<svg version="1.0" xmlns="http://www.w3.org/2000/svg"
 width="512.000000pt" height="512.000000pt" viewBox="0 0 512.000000 512.000000"
 preserveAspectRatio="xMidYMid meet">

<g transform="translate(0.000000,512.000000) scale(0.100000,-0.100000)"
fill="rgba(0, 0, 0, 0.35)" stroke="none">
<path d="M2055 4949 c-388 -50 -755 -271 -988 -597 -114 -159 -200 -361 -244
-572 -25 -119 -25 -401 0 -520 63 -303 191 -544 402 -755 206 -206 433 -329
729 -397 83 -19 132 -21 531 -25 480 -5 592 1 752 43 259 67 470 189 663 384
207 209 335 451 397 750 24 118 24 402 0 520 -43 209 -129 412 -244 572 -70
99 -222 255 -317 325 -196 145 -441 243 -681 272 -107 13 -897 13 -1000 0z
m355 -324 c235 -35 449 -144 620 -315 438 -439 438 -1141 0 -1580 -441 -441
-1141 -438 -1585 5 -250 250 -367 612 -310 960 57 352 277 655 594 819 213
110 443 148 681 111z"/>
<path d="M2175 4466 c-56 -26 -95 -85 -95 -145 0 -25 -8 -32 -57 -57 -72 -34
-172 -132 -207 -202 -95 -187 -65 -399 77 -550 87 -91 185 -137 324 -151 90
-9 118 -23 157 -75 29 -39 29 -133 0 -172 -39 -53 -71 -69 -134 -69 -94 0
-145 50 -160 155 -15 105 -66 155 -160 155 -123 0 -182 -97 -151 -246 28 -136
134 -275 252 -333 54 -26 57 -29 62 -73 5 -49 27 -85 71 -117 39 -29 133 -29
172 0 44 32 66 68 71 117 5 44 8 47 62 73 70 34 170 133 205 202 95 187 65
399 -77 550 -87 91 -185 137 -324 151 -90 9 -118 23 -157 75 -29 39 -29 133 0
172 39 53 71 69 134 69 94 0 145 -50 160 -155 15 -105 66 -155 160 -155 123 0
182 97 151 246 -28 136 -134 275 -252 333 -54 26 -57 29 -62 73 -9 78 -65 133
-144 140 -28 2 -61 -2 -78 -11z"/>
<path d="M255 2066 c-41 -18 -83 -69 -90 -109 -3 -18 -5 -406 -3 -863 l3 -831
29 -37 c46 -61 70 -66 289 -66 107 0 219 5 248 10 71 13 165 60 221 110 l46
40 791 0 791 0 912 195 c1212 260 1132 241 1211 282 177 93 283 305 250 500
-32 186 -185 351 -364 392 -88 21 -182 9 -859 -104 -376 -63 -686 -113 -688
-111 -2 2 -9 33 -17 69 -37 178 -177 319 -356 362 -54 12 -186 15 -867 15
l-804 0 -43 38 c-57 50 -128 88 -200 107 -79 20 -454 21 -500 1z m2399 -500
c90 -68 86 -190 -8 -260 -27 -20 -43 -21 -486 -26 -443 -5 -459 -6 -486 -26
-52 -39 -69 -71 -69 -133 0 -48 5 -64 29 -95 50 -67 46 -66 539 -66 482 0 509
3 610 58 28 15 71 45 96 68 l46 41 775 128 c564 93 786 126 813 121 78 -15
135 -96 124 -178 -6 -41 -45 -101 -78 -119 -11 -6 -469 -107 -1017 -225 l-997
-214 -712 0 -713 0 0 480 0 480 748 -2 749 -3 37 -29z"/>
</g>
</svg>
