<svg width="31" height="31" viewBox="0 0 31 31" fill="none" xmlns="http://www.w3.org/2000/svg">
<path d="M4.21347 0.0788403C3.44453 0.272591 3.19629 0.460285 1.82793 1.82864C0.429294 3.22122 0.265818 3.4513 0.0720676 4.26868C-0.103518 5.0013 0.0478488 5.89134 0.459568 6.55736C0.538278 6.69056 2.55449 8.75521 4.94004 11.1408L9.28125 15.488L4.94004 19.8292C2.55449 22.2208 0.538278 24.2855 0.459568 24.4187C0.0478488 25.0847 -0.103518 25.9747 0.0720676 26.7074C0.265818 27.5247 0.429294 27.7548 1.82793 29.1474C3.2205 30.546 3.45058 30.7095 4.26797 30.9033C4.97031 31.0728 5.89062 30.9275 6.52031 30.5581C6.6414 30.4855 8.70605 28.4632 11.1098 26.0595L15.4873 21.6941L19.8891 26.0898C24.6844 30.8669 24.4785 30.6853 25.3988 30.9033C26.1496 31.0788 26.967 30.9335 27.6814 30.5036C27.8934 30.3765 28.4928 29.8255 29.2254 29.0808C30.5332 27.7609 30.7148 27.5066 30.9025 26.7074C31.0781 25.9747 30.9268 25.0847 30.515 24.4187C30.4363 24.2855 28.4201 22.2208 26.0346 19.8292L21.6934 15.488L26.0346 11.1408C28.4201 8.75521 30.4363 6.69056 30.515 6.55736C30.9268 5.89134 31.0781 5.0013 30.9025 4.26868C30.7088 3.45736 30.5453 3.22122 29.1467 1.82259C27.9842 0.660089 27.8268 0.520832 27.415 0.327082C27.1668 0.205988 26.7975 0.0788403 26.5977 0.042511C25.9014 -0.0846367 25.0416 0.0788403 24.418 0.460285C24.2848 0.538996 22.2201 2.55521 19.8346 4.94075L15.4873 9.28197L11.1158 4.91654C8.70605 2.51283 6.6414 0.490559 6.52031 0.417902C5.90273 0.0546207 4.8916 -0.0967464 4.21347 0.0788403ZM9.94726 7.42923C12.575 10.057 14.8213 12.2548 14.9363 12.3093C15.2027 12.4425 15.7719 12.4425 16.0383 12.3093C16.1533 12.2548 18.3996 10.057 21.0273 7.42923C25.532 2.93665 25.8227 2.65208 26.0225 2.65208C26.2162 2.65208 26.3252 2.7429 27.2758 3.69349C28.2324 4.65013 28.3232 4.75911 28.3232 4.95286C28.3232 5.15267 28.0508 5.43724 23.5098 9.97825C18.4723 15.0218 18.5146 14.9734 18.5146 15.4759C18.5146 15.9966 18.3875 15.8574 23.4916 20.9675C28.0326 25.5206 28.3232 25.8294 28.3232 26.0232C28.3232 26.2169 28.2264 26.3259 27.2818 27.2765C26.3252 28.2331 26.2162 28.324 26.0225 28.324C25.8287 28.324 25.532 28.0454 20.9668 23.4923C15.8748 18.4064 15.9898 18.5154 15.4873 18.5154C14.9848 18.5154 15.0998 18.4064 10.0078 23.4923C5.45468 28.0333 5.1459 28.324 4.95215 28.324C4.7584 28.324 4.64941 28.2271 3.69882 27.2826C2.74218 26.3259 2.65136 26.2169 2.65136 26.0232C2.65136 25.8234 2.92988 25.5388 7.48906 20.9675C12.2723 16.1722 12.3268 16.1177 12.3994 15.8029C12.4539 15.5546 12.4539 15.4214 12.3994 15.1671C12.3268 14.8583 12.2723 14.7978 7.48906 10.0085C2.94199 5.4554 2.65136 5.14661 2.65136 4.95286C2.65136 4.75911 2.74824 4.65013 3.69277 3.69954C4.64941 2.7429 4.7584 2.65208 4.95215 2.65208C5.15195 2.65208 5.43652 2.92454 9.94726 7.42923Z" fill="black"/>
</svg>
