<svg width="39" height="44" viewBox="0 0 39 44" fill="none" xmlns="http://www.w3.org/2000/svg">
<path d="M18.0314 0.271484C15.4795 0.876953 13.4324 2.76172 12.6062 5.26172C11.6332 8.24023 12.3125 11.3555 14.433 13.5234L15.0755 14.1875H19.5093H23.9431L24.6867 13.377C25.8341 12.1465 26.4951 10.7695 26.7429 9.10938C27.1652 6.375 26.0453 3.39648 23.989 1.73633C23.3189 1.19922 22.1898 0.603516 21.382 0.369141C20.6109 0.144531 18.7933 0.0859375 18.0314 0.271484ZM20.005 3.49414C20.1336 3.62109 20.2345 3.83594 20.2345 3.96289C20.2345 4.13867 20.308 4.23633 20.5099 4.32422C21.125 4.59766 21.7033 5.58398 21.7033 6.36523C21.7033 6.77539 21.3545 7.15625 20.9689 7.15625C20.5925 7.15625 20.2345 6.77539 20.2345 6.375C20.2345 5.97461 19.8765 5.59375 19.5002 5.59375C19.1238 5.59375 18.7658 5.97461 18.7658 6.375C18.7658 6.78516 19.1238 7.15625 19.5093 7.15625C20.6384 7.15625 21.7033 8.29883 21.7033 9.5C21.7033 10.291 21.1341 11.2773 20.5099 11.5508C20.308 11.6387 20.2345 11.7363 20.2345 11.9121C20.2345 12.2441 19.849 12.625 19.5002 12.625C19.1513 12.625 18.7658 12.2441 18.7658 11.9121C18.7658 11.7363 18.6923 11.6387 18.4904 11.5508C17.8753 11.2773 17.297 10.291 17.297 9.50977C17.297 9.09961 17.6459 8.71875 18.0314 8.71875C18.4078 8.71875 18.7658 9.09961 18.7658 9.5C18.7658 9.90039 19.1238 10.2812 19.5002 10.2812C19.8765 10.2812 20.2345 9.90039 20.2345 9.5C20.2345 9.08984 19.8765 8.71875 19.491 8.71875C18.3619 8.71875 17.297 7.57617 17.297 6.375C17.297 5.58398 17.8662 4.59766 18.4904 4.32422C18.6923 4.23633 18.7658 4.13867 18.7658 3.96289C18.7658 3.63086 19.1513 3.25 19.5002 3.25C19.6746 3.25 19.8673 3.33789 20.005 3.49414Z" fill="black"/>
<path d="M5.15215 9.60742C5.06035 9.66602 4.02305 11.7754 2.83887 14.2949L0.681641 18.875H19.5H38.3184L36.1611 14.2852C34.8576 11.5117 33.9396 9.66602 33.8295 9.59766C33.7193 9.53906 32.6453 9.5 30.9104 9.5H28.1748L28.0096 10.2617C27.8168 11.1797 27.1008 12.7617 26.5225 13.5527L26.1002 14.1387L27.7617 14.1875C29.3773 14.2363 29.4324 14.2461 29.6068 14.4707C29.8455 14.7832 29.8271 15.2227 29.5518 15.5059L29.3314 15.75H19.5H9.66855L9.44824 15.5059C9.17285 15.2227 9.15449 14.7832 9.39316 14.4707C9.56758 14.2461 9.62266 14.2363 11.2383 14.1875L12.8998 14.1387L12.4775 13.5527C11.8992 12.7617 11.1832 11.1797 10.9904 10.2617L10.8252 9.5H8.07129C6.34551 9.5 5.25312 9.53906 5.15215 9.60742Z" fill="black"/>
<path d="M0.40625 31.9121V43.3965L0.635742 43.6309L0.856055 43.875H19.5H38.1439L38.3643 43.6309L38.5938 43.3965V31.9121V20.4375H19.5H0.40625V31.9121ZM17.3061 25.0176C17.9486 25.252 18.4811 25.6035 19.0594 26.1797L19.5 26.6191L19.9406 26.1797C20.776 25.3496 21.6939 24.8906 22.7312 24.7734C24.2918 24.6074 25.9809 25.5156 26.8621 26.9805C27.7342 28.4258 27.6883 30.5156 26.7611 32.0195C26.55 32.3613 25.0629 34.0117 23.1076 36.082C20.06 39.3145 19.7937 39.5781 19.5 39.5781C19.2062 39.5781 18.94 39.3145 15.8924 36.082C13.9371 34.0117 12.45 32.3613 12.2389 32.0195C11.3117 30.5156 11.2658 28.4355 12.1471 26.9707C12.7346 25.9844 13.9555 25.0664 15.002 24.832C15.5895 24.7051 16.7002 24.793 17.3061 25.0176Z" fill="black"/>
<path d="M14.7726 26.5312C13.3314 27.1758 12.6154 28.875 13.1203 30.4961C13.2671 30.9941 13.4874 31.2578 16.3882 34.3535L19.5001 37.6738L22.6121 34.3535C25.5128 31.2578 25.7331 30.9941 25.88 30.4961C26.2564 29.2852 26.0177 28.1426 25.2007 27.2637C24.5306 26.541 23.8605 26.2578 22.9884 26.3262C22.098 26.3848 21.6298 26.6582 20.6476 27.6641C19.5093 28.8359 19.491 28.8359 18.3527 27.6641C17.3521 26.6289 16.8931 26.375 15.966 26.3262C15.4335 26.2969 15.2224 26.3359 14.7726 26.5312Z" fill="black"/>
</svg>
