<svg width="28" height="34" viewBox="0 0 28 34" fill="none" xmlns="http://www.w3.org/2000/svg">
<path d="M24.5338 0.0639634C24.1344 0.16221 23.6913 0.398004 23.3739 0.686195C23.1989 0.836841 22.6901 1.41322 22.236 1.95686L21.4153 2.94588L23.4834 5.41516L25.546 7.89099L26.4214 6.84302C26.9083 6.26664 27.3898 5.63131 27.5047 5.43481C28.2816 4.03315 28.1338 2.23195 27.1381 1.03989C26.4433 0.208059 25.4694 -0.158731 24.5338 0.0639634Z" fill="#031059"/>
<path d="M15.4955 10.0328C11.7478 14.5259 10.8287 15.6656 10.7849 15.849C10.7575 15.9734 10.5551 17.1655 10.3363 18.5017C10.0682 20.1129 9.9478 20.9841 9.96969 21.1085C10.0189 21.3377 10.1831 21.5342 10.3745 21.5932C10.5825 21.6521 14.7569 20.6566 14.9703 20.4994C15.0524 20.4339 17.1916 17.9056 19.7192 14.8731L24.315 9.36469L22.2633 6.90851C21.1363 5.55924 20.2007 4.45233 20.1843 4.45233C20.1679 4.45233 18.0615 6.96745 15.4955 10.0328Z" fill="#031059"/>
<path d="M2.85712 5.66406C1.80666 5.8933 0.832796 6.78407 0.356807 7.95649C-0.0261721 8.89966 -0.00975872 8.23813 0.00665469 19.7789L0.0230681 30.1604L0.143433 30.5861C0.323981 31.2149 0.635835 31.8044 1.03523 32.2891C1.44556 32.7803 1.85043 33.0816 2.3866 33.3043L2.75864 33.468H11.6328H20.507L20.9338 33.3043C22.0334 32.8916 22.8979 31.7913 23.2316 30.3831C23.3246 29.9901 23.3301 29.5643 23.3301 23.866V17.7681L23.166 17.4537C22.9252 16.9887 22.5204 16.7398 22.0827 16.7856C21.6997 16.8249 21.3988 17.0411 21.1854 17.4341L21.0322 17.7092L21.0049 23.735C20.9775 29.2499 20.972 29.787 20.8845 29.9704C20.7532 30.2586 20.4413 30.5664 20.2006 30.6516C20.0529 30.704 17.5198 30.7171 11.5343 30.704L3.07596 30.6843L2.86259 30.5075C2.74769 30.4093 2.58903 30.2193 2.51243 30.0818L2.37566 29.8394L2.35924 19.6348C2.3483 9.68564 2.3483 9.42365 2.45225 9.18131C2.51243 9.05031 2.62733 8.86036 2.71487 8.76212C3.05955 8.36258 2.81882 8.38223 8.12582 8.38223C11.8079 8.38223 13.0334 8.36258 13.203 8.30363C13.5149 8.19228 13.8541 7.76655 13.9416 7.38011C14.0894 6.75788 13.8705 6.10289 13.4109 5.78195L13.1538 5.59856L8.20242 5.58546C4.30697 5.57891 3.16897 5.59201 2.85712 5.66406Z" fill="#031059"/>
</svg>
