<svg width="30" height="37" viewBox="0 0 30 37" fill="none" xmlns="http://www.w3.org/2000/svg">
<g clip-path="url(#clip0_423_42)">
<path d="M1.69922 5.21119C1.10742 5.47733 0.691408 5.86953 0.380861 6.45083C-0.0292955 7.21423 -0.00585797 6.61892 0.0117202 15.6676L0.0292983 23.8198L0.216798 24.2891C0.421876 24.8143 0.826173 25.3396 1.23047 25.6268C1.82227 26.04 1.53516 26.026 9.34571 26.026H16.5L16.6055 26.4252C16.875 27.4547 17.4082 28.5193 18.1055 29.4087C19.1133 30.6974 20.4844 31.5799 21.9375 31.881C22.7344 32.0491 24.0996 31.9861 24.8496 31.7479C25.6348 31.5028 26.3965 31.0966 26.6777 30.7744C26.9004 30.5223 26.9062 30.4943 26.877 30.1791C26.8535 29.92 26.8066 29.8009 26.666 29.6539C26.4258 29.3947 26.2031 29.4017 25.7227 29.6749C23.8711 30.7394 21.9492 30.6764 20.3086 29.5138C18.4102 28.1621 17.3086 25.5287 17.5781 23.0074C17.9121 19.9048 19.8984 17.5306 22.4941 17.1314C23.8301 16.9283 25.3711 17.4325 26.4844 18.448C27.3633 19.2395 28.0957 20.4651 28.418 21.6557C28.6465 22.5102 28.7109 23.0284 28.7109 23.9949C28.7109 24.9194 28.6289 25.2206 28.2832 25.5847C27.7383 26.152 26.9062 26.026 26.502 25.3046C26.2969 24.9474 26.25 24.4572 26.25 22.7553V21.1795L26.0801 20.9764C25.9453 20.8153 25.8574 20.7733 25.6641 20.7733C25.5293 20.7733 25.3711 20.8083 25.3066 20.8503C25.2129 20.9063 25.1543 20.8923 25.002 20.7522C24.7031 20.4791 24.2285 20.22 23.8359 20.1079C22.7578 19.8068 21.7031 20.1709 20.9121 21.1164C19.6699 22.6012 19.6641 24.9264 20.8945 26.3972C21.5332 27.1606 22.2129 27.4967 23.1152 27.4967C23.9238 27.4967 24.6035 27.2026 25.1953 26.5933L25.4531 26.3271L25.7344 26.6633C25.8867 26.8454 26.1914 27.0975 26.4023 27.2236C26.748 27.4267 26.8652 27.4617 27.3691 27.4827C28.0195 27.5178 28.377 27.4127 28.8574 27.0415C29.3555 26.6563 29.7129 26.11 29.9004 25.4377C30.0293 24.9754 30.0352 23.1475 29.9121 22.286C29.5723 19.9538 28.3418 17.8597 26.5898 16.6341C26.0156 16.2349 25.1309 15.8357 24.4922 15.6956C24.1875 15.6256 23.9004 15.5626 23.8652 15.5485C23.8066 15.5275 23.7891 14.7151 23.7891 11.7596C23.7891 9.68651 23.7656 7.80953 23.7305 7.58542C23.584 6.49285 22.9395 5.58238 22.0781 5.2322L21.7148 5.08512L11.8418 5.09213C2.75391 5.09213 1.93945 5.10613 1.69922 5.21119ZM21.2051 6.65394C20.9238 6.9691 12.3984 15.2824 12.2813 15.3594C12.082 15.4785 11.666 15.4925 11.4844 15.3805C11.3555 15.2964 2.96485 7.09517 2.69531 6.79401L2.54883 6.62592H11.8887C17.0273 6.62592 21.2168 6.63993 21.2051 6.65394ZM6.45703 12.544C8.92969 14.9672 10.7402 16.6901 10.9395 16.8162C11.25 17.0053 11.332 17.0263 11.8652 17.0263C12.375 17.0263 12.4922 17.0053 12.7734 16.8442C12.9902 16.7252 14.6309 15.1563 17.7188 12.1308C21.1816 8.72701 22.3535 7.61343 22.4063 7.67647C22.4531 7.73249 22.4707 8.81806 22.4707 11.6545V15.5485L21.9961 15.6396C18.709 16.2489 16.2305 19.7437 16.2305 23.7568V24.4852L9.21094 24.4712L2.19727 24.4502L1.96289 24.2961C1.66992 24.107 1.49414 23.8899 1.37695 23.5607C1.30078 23.3296 1.28906 22.3911 1.28906 15.5766C1.28906 11.3254 1.30664 7.78152 1.32422 7.69748C1.35938 7.5504 1.39453 7.57141 1.83985 8.01264C2.10352 8.27177 4.1836 10.3098 6.45703 12.544ZM23.8887 21.7888C25.0488 22.4191 25.3184 24.212 24.4102 25.2976C23.25 26.6773 21.293 25.7038 21.3047 23.7498C21.3164 22.146 22.6641 21.1234 23.8887 21.7888Z" fill="#F24405"/>
</g>
<defs>
<clipPath id="clip0_423_42">
<rect width="30" height="35.8586" fill="white" transform="translate(0 0.602783)"/>
</clipPath>
</defs>
</svg>
