<svg width="30" height="30" viewBox="0 0 30 30" fill="none" xmlns="http://www.w3.org/2000/svg">
<path d="M13.5548 0.0375977C8.86727 0.523926 4.75985 3.06689 2.26376 7.04541C-0.630775 11.6509 -0.759681 17.6509 1.93563 22.356C3.35946 24.8345 5.43954 26.8677 7.89462 28.1802C9.98641 29.2993 12.295 29.9146 14.463 29.938L15.254 29.9438L15.2716 24.1255L15.2833 18.313H13.672H12.0606V16.438V14.563L13.6602 14.5513L15.254 14.5337L15.2891 12.5708C15.3184 10.7896 15.3302 10.5669 15.4474 10.1392C15.8985 8.52197 16.9708 7.44385 18.5938 6.99268C19.0157 6.87549 19.2032 6.86377 20.4395 6.86377C21.1954 6.85791 22.0743 6.88135 22.3907 6.91064L22.9591 6.95752V8.64502V10.3325L21.5704 10.356C20.1817 10.3735 20.1759 10.3735 19.8712 10.5317C19.2266 10.8716 19.1505 11.147 19.1505 13.0806V14.563H20.9962C22.0099 14.563 22.8419 14.5806 22.8419 14.604C22.8419 14.6333 22.7364 15.4536 22.6075 16.4321C22.4786 17.4165 22.3731 18.2368 22.3731 18.2661C22.3731 18.2896 21.6466 18.313 20.7618 18.313H19.1505V23.8501C19.1505 26.897 19.1622 29.3872 19.1739 29.3872C19.2852 29.3872 20.6798 28.8599 21.2071 28.6196C22.9708 27.811 24.336 26.8384 25.7423 25.397C26.9669 24.1372 27.7227 23.0532 28.502 21.4478C29.1934 20.0181 29.6681 18.4243 29.8848 16.7896C29.9786 16.063 29.9786 13.8071 29.8848 13.1274C29.3927 9.66455 27.963 6.74658 25.5899 4.37354C23.2638 2.05322 20.3692 0.600098 17.0704 0.11377C16.3497 0.00830078 14.2696 -0.0385742 13.5548 0.0375977Z" fill="#031059"/>
</svg>
