<?xml version="1.0" standalone="no"?>
<!DOCTYPE svg PUBLIC "-//W3C//DTD SVG 20010904//EN"
 "http://www.w3.org/TR/2001/REC-SVG-20010904/DTD/svg10.dtd">
<svg version="1.0" xmlns="http://www.w3.org/2000/svg"
 width="512.000000pt" height="512.000000pt" viewBox="0 0 512.000000 512.000000"
 preserveAspectRatio="xMidYMid meet">

<g transform="translate(0.000000,512.000000) scale(0.100000,-0.100000)"
fill="#000000" stroke="none">
<path d="M670 2566 c0 -1405 3 -2557 8 -2559 4 -2 429 182 945 410 l938 414
937 -414 c515 -227 940 -412 945 -410 4 2 7 1154 7 2559 l0 2554 -1890 0
-1890 0 0 -2554z m3470 74 l0 -2181 -27 15 c-16 7 -212 95 -438 194 -225 99
-568 250 -762 336 l-352 155 -781 -344 c-430 -189 -785 -347 -790 -350 -6 -4
-10 799 -10 2174 l0 2181 1580 0 1580 0 0 -2180z"/>
<path d="M2341 3835 c-117 -201 -217 -367 -222 -370 -5 -4 -194 -46 -420 -95
-227 -49 -414 -91 -416 -93 -2 -2 125 -148 282 -323 176 -197 285 -327 285
-340 0 -11 -18 -197 -40 -414 -23 -217 -40 -402 -38 -412 3 -14 64 10 374 146
205 90 381 169 391 175 17 8 89 -20 414 -164 326 -144 394 -171 397 -157 2 10
-15 195 -38 412 -22 217 -40 403 -40 414 0 13 109 143 285 340 157 175 284
321 281 323 -2 3 -189 45 -416 94 -226 49 -415 91 -420 94 -4 3 -104 169 -221
370 -116 201 -215 365 -219 365 -4 0 -103 -164 -219 -365z m344 -432 l120
-207 233 -50 c127 -27 232 -52 232 -55 0 -4 -70 -84 -155 -180 -134 -150 -155
-178 -155 -207 0 -18 9 -120 20 -226 12 -106 20 -200 18 -208 -2 -14 -43 1
-213 77 -115 51 -217 93 -225 93 -8 -1 -109 -43 -225 -94 -176 -78 -210 -90
-213 -76 -2 10 6 104 17 210 12 105 21 207 21 225 0 28 -22 57 -155 206 -85
96 -155 176 -155 179 0 3 105 28 232 55 l233 50 120 207 c66 114 122 208 125
208 3 0 59 -94 125 -207z"/>
</g>
</svg>
