<svg width="137" height="112" viewBox="0 0 137 112" fill="none" xmlns="http://www.w3.org/2000/svg">
<g clip-path="url(#clip0_388_241)">
<path d="M65.9003 0.304699C64.1893 0.652775 61.8634 1.52297 60.2326 2.41492C59.5375 2.8065 49.4052 10.7253 37.6955 20.0363C13.8484 38.963 15.1317 37.7882 15.1317 40.8992C15.1317 43.6838 16.8694 45.9028 19.9171 47.034C21.5747 47.6214 24.7293 47.6867 26.2532 47.1428C27.3493 46.773 56.1689 30.4351 57.1581 29.6519C58.0136 28.9558 57.9334 27.8245 56.9175 26.628C53.8163 22.9297 53.7094 18.6658 56.6769 15.0545C57.9602 13.5099 60.2593 12.0088 62.505 11.2691C64.0021 10.7905 64.2695 10.7688 74.8295 10.7035C84.9084 10.6382 85.657 10.66 86.1382 11.0298C86.9937 11.6607 87.2076 12.3351 86.7531 13.053C86.5392 13.4011 86.1917 13.7492 86.0312 13.8579C85.8441 13.945 80.925 14.0755 75.1236 14.1408L64.5635 14.2495L63.2001 14.8369C58.2008 16.9906 57.2651 22.3641 61.3554 25.4097C64.4566 27.7158 73.573 31.8057 80.8715 34.1334C87.1274 36.1566 93.0089 37.5054 99.6925 38.4844C104.906 39.2458 109.183 38.9847 113.113 37.6577C114.744 37.0921 134.982 26.5845 136.292 25.6055C136.693 25.301 136.88 24.9094 136.88 24.322C136.88 23.6259 131.988 3.82898 131.239 1.47946C130.918 0.478737 130.116 0.000133514 128.806 0.000133514C127.924 0.000133514 127.336 0.304699 123.513 2.91528C120.358 5.04725 118.915 5.89569 118.032 6.09148C116.936 6.33078 115.305 6.13499 94.5595 3.17633C70.8996 -0.19566 69.2421 -0.369701 65.9003 0.304699Z" fill="#F2F2F2"/>
<path d="M57.4789 41.1168C52.8271 41.813 49.4051 44.2278 48.0417 47.7521C47.2664 49.8188 47.2664 53.3213 48.0952 55.8013C49.9131 61.3488 54.6718 66.1784 60.8207 68.7019C64.9913 70.3988 68.7608 70.7686 72.4502 69.8549C81.4329 67.5924 87.9828 61.2183 89.3196 53.4083C90.0949 48.9703 88.2502 44.9457 84.5074 42.8137C80.524 40.5512 74.482 40.3772 69.8302 42.4221L68.4133 43.0313L67.2904 42.5091C64.7774 41.3344 60.2593 40.6817 57.4789 41.1168Z" fill="#F2F2F2"/>
<path d="M111.429 64.0246C110.761 64.1986 109.852 64.5032 109.424 64.7207C106.029 66.5264 79.9625 81.4937 79.615 81.8417C78.9199 82.4944 79.0001 83.6909 79.8288 84.5611C80.2031 84.9527 80.8715 85.9316 81.3527 86.7366C82.0211 87.9331 82.2082 88.5422 82.2884 90.1086C82.529 94.0462 80.2299 97.4834 76.0326 99.4196C73.4393 100.638 72.5304 100.725 61.3554 100.725H51.1429L50.528 100.181C49.7259 99.4849 49.6992 98.4624 50.5012 97.8315C51.0627 97.3529 51.1963 97.3529 61.7029 97.2441L72.3165 97.1354L73.6532 96.548C76.7009 95.2427 78.2248 93.0237 78.0109 90.1956C77.797 87.4545 76.4603 86.1274 71.3808 83.5604C60.9009 78.2522 49.9665 74.8149 37.7757 72.9875C31.8941 72.0956 27.5364 72.3566 23.4193 73.836C21.8955 74.3798 1.711 84.9527 0.614891 85.7794C0.187141 86.0839 0 86.4755 0 87.0629C0 87.759 4.89239 107.556 5.64095 109.905C5.96177 110.906 6.7638 111.385 8.07378 111.385C8.95602 111.385 9.54417 111.058 13.3939 108.47C16.5486 106.338 18.019 105.489 18.8745 105.293C19.9706 105.032 21.6281 105.25 42.3205 108.209C66.1408 111.602 67.5043 111.733 71.06 111.058C72.8779 110.71 74.8563 109.971 76.7009 108.926C77.3693 108.557 87.4749 100.66 99.1845 91.3486C123.032 72.4219 121.748 73.5967 121.748 70.4857C121.748 68.4843 121.053 67.0485 119.422 65.7432C117.364 64.0898 114.156 63.4154 111.429 64.0246Z" fill="#F2F2F2"/>
</g>
<defs>
<clipPath id="clip0_388_241">
<rect width="136.88" height="111.385" fill="white"/>
</clipPath>
</defs>
</svg>
