<svg width="112" height="117" viewBox="0 0 112 117" fill="none" xmlns="http://www.w3.org/2000/svg">
<g clip-path="url(#clip0_388_229)">
<path d="M54.1017 0.319206C41.2037 2.69118 31.3174 12.7265 28.5676 26.2513C27.9129 29.4671 27.8474 35.3059 28.4585 38.6585C30.2044 48.4429 36.0751 56.9045 44.3027 61.5572C49.1695 64.2941 53.8398 65.5029 59.4485 65.5029C64.4026 65.4801 68.571 64.5222 72.8048 62.4011C81.9927 57.794 88.2562 49.3552 90.2858 38.841C90.8314 36.0357 90.8314 29.4215 90.2858 26.6162C87.7542 13.5019 78.3481 3.44383 65.9084 0.570091C63.6824 0.045517 56.415 -0.0913239 54.1017 0.319206ZM63.9006 7.43513C68.4618 8.27901 73.2195 10.9019 76.624 14.437C88.6927 26.9583 85.4845 47.8043 70.2732 55.7641C60.998 60.6449 49.6932 58.7747 42.2949 51.1798C36.4242 45.1587 33.8272 37.2217 35.0057 28.9654C35.7914 23.6056 37.9301 19.0441 41.5747 15.0984C43.888 12.544 45.6776 11.1756 48.5584 9.69307C53.4251 7.18425 58.5319 6.43161 63.9006 7.43513Z" fill="#F2F2F2"/>
<path d="M57.659 15.0529C56.7642 15.6231 56.0876 16.7863 56.0876 17.7214C56.0876 18.3372 56.0003 18.474 55.6293 18.474C54.7127 18.474 52.4648 19.8197 51.4173 20.9828C46.9434 25.9777 49.0821 34.2112 55.3238 35.9217C56.1094 36.127 57.5498 36.2638 58.9466 36.2638C61.6746 36.2638 62.2638 36.4463 62.7439 37.3814C63.1586 38.2481 62.984 39.092 62.2638 39.685C61.7619 40.0955 61.369 40.1411 58.5101 40.1411C54.8655 40.1411 53.8179 40.4604 53.0323 41.7833C52.3775 42.878 52.5085 45.1131 53.2505 45.9798C53.9489 46.7325 54.8218 47.2114 55.542 47.2114C56.0003 47.2114 56.0876 47.3255 56.0876 47.8272C56.0876 48.1921 56.284 48.8079 56.5241 49.2185C58.1173 51.9554 62.2202 51.0887 62.7221 47.9185C62.8094 47.2342 62.9622 46.9834 63.2459 46.9834C64.0097 46.9834 65.9521 45.8202 67.0869 44.7254C71.1243 40.7113 70.4696 33.7778 65.7338 30.5848C64.228 29.5813 62.5257 29.1935 59.5795 29.1935C56.8078 29.1935 56.3059 29.0111 55.913 27.8707C55.673 27.1637 56.0222 26.0005 56.5678 25.6356C56.7205 25.5215 58.4883 25.3847 60.4961 25.3163C64.6644 25.1794 64.97 25.0654 65.8648 23.1952C66.2794 22.3513 66.3449 21.9408 66.2358 21.2109C65.9957 19.7512 64.5117 18.246 63.3332 18.246C62.8749 18.246 62.6348 17.8354 62.6348 17.1056C62.6348 16.5582 61.6527 15.3494 60.8671 14.9389C59.9941 14.4599 58.5101 14.5055 57.659 15.0529Z" fill="#F2F2F2"/>
<path d="M8.55503 11.4037C7.55113 12.0651 6.9837 13.1371 6.9837 14.4599C6.9837 16.467 7.37654 16.8547 12.0905 19.3179C15.7351 21.2565 16.3898 21.5302 17.3937 21.5302C19.2924 21.553 20.6019 20.2074 20.6019 18.1775C20.6237 16.0108 20.209 15.6003 15.4732 13.1143C10.8902 10.7195 9.99541 10.4914 8.55503 11.4037Z" fill="#F2F2F2"/>
<path d="M103.62 12.9089C101.547 13.9809 99.5173 15.1897 99.1245 15.5774C97.9023 16.809 97.7496 18.7476 98.7753 20.2757C99.2118 20.8915 100.696 21.6442 101.525 21.667C101.831 21.667 104.079 20.6407 106.479 19.3862C111.499 16.7862 111.739 16.5581 111.739 14.323C111.739 13.2738 111.63 12.9089 111.171 12.3159C110.386 11.358 109.556 10.9475 108.378 10.9475C107.614 10.9475 106.676 11.3352 103.62 12.9089Z" fill="#F2F2F2"/>
<path d="M16.368 43.9955C16.0625 44.1096 14.0328 45.1131 11.8505 46.2763C7.37654 48.6254 6.9837 49.0132 6.9837 50.9974C6.9837 53.0501 8.35861 54.5098 10.3009 54.5098C11.1739 54.5098 12.0032 54.1677 15.4732 52.3431C20.209 49.857 20.6237 49.4465 20.6019 47.2798C20.6019 45.7973 20.0999 45.0219 18.7687 44.292C17.7647 43.7675 17.2846 43.699 16.368 43.9955Z" fill="#F2F2F2"/>
<path d="M99.9538 44.2921C98.1643 45.25 97.5532 47.5536 98.6226 49.3326C99.059 50.0624 99.7138 50.4957 103.293 52.366C107.396 54.5099 107.505 54.5555 108.771 54.4642C109.949 54.373 110.124 54.2818 110.888 53.4151C111.673 52.5484 111.739 52.366 111.739 51.18C111.739 48.9448 111.433 48.6483 106.697 46.1851C104.45 44.9991 102.224 43.9728 101.765 43.9044C101.154 43.7904 100.696 43.9044 99.9538 44.2921Z" fill="#F2F2F2"/>
<path d="M87.405 70.2241C83.6731 71.2276 81.4689 72.6417 77.6715 76.5646L74.8999 79.3927L74.3543 78.3892C73.5905 77.0436 71.9755 75.4014 70.6006 74.5803C68.3309 73.2347 68.1563 73.2119 53.7743 73.2119C41.4219 73.2119 40.5708 73.2347 38.9776 73.668C34.722 74.8084 31.2301 78.1155 29.5278 82.6086L28.9604 84.1595H26.5816H24.2246V81.9472C24.2246 79.2559 23.81 78.1155 22.5005 77.3629C21.6712 76.8611 21.5184 76.8611 12.0905 76.8611C1.41856 76.8611 1.50585 76.8383 0.501952 78.4348L0 79.2103V96.9088C0 113.855 0.021824 114.63 0.414656 115.269C0.632895 115.611 1.11302 116.113 1.44038 116.341C2.02963 116.751 2.6407 116.774 11.9595 116.774C22.8497 116.774 22.6096 116.797 23.6135 115.36C24.05 114.699 24.1155 114.288 24.2028 112.053L24.2683 109.499L48.4274 109.43L72.5647 109.362L73.9833 108.837C77.4315 107.537 77.3224 107.628 91.1806 93.1912C98.2952 85.7788 104.275 79.4383 104.45 79.0962C104.864 78.2752 104.842 76.7699 104.406 75.812C103.577 73.9874 99.1463 71.1592 95.72 70.2469C93.4721 69.6539 89.6093 69.6539 87.405 70.2241ZM95.1089 77.4313C95.6108 77.6365 96.0255 77.8874 96.0255 77.9787C96.0255 78.0471 91.0933 83.27 85.0699 89.542C75.5764 99.4405 73.9178 101.06 72.783 101.63L71.4735 102.291L47.86 102.36L24.2246 102.405V96.8176V91.2298H28.5458C32.3213 91.2298 32.9542 91.1842 33.6089 90.7964C34.7438 90.1806 35.1366 89.4508 35.3767 87.5578C35.7913 84.4332 37.1881 82.198 39.4578 81.0349L40.7017 80.3962L53.2505 80.3278C61.6964 80.2822 66.0612 80.3278 66.6068 80.5103C67.0433 80.6243 67.698 81.1033 68.069 81.5366C69.7494 83.5437 69.2475 86.1437 66.956 87.3753C66.214 87.7631 65.6029 87.8087 59.4267 87.8087C53.2942 87.8087 52.6394 87.8543 51.9411 88.242C49.5841 89.542 49.5841 93.2368 51.9411 94.4685C52.6176 94.8334 53.4687 94.879 59.6449 94.879C67.7198 94.879 68.7455 94.7193 70.9716 93.2368C71.8227 92.6667 74.769 89.8157 78.7846 85.642C82.32 81.9928 85.55 78.7541 85.9428 78.4576C86.3575 78.1839 87.3396 77.705 88.1252 77.3857C89.4128 76.9067 89.8711 76.8611 91.8789 76.9295C93.3848 76.9979 94.4978 77.1576 95.1089 77.4313ZM17.4592 96.9317V109.932H12.0032H6.54719V96.9317V83.9314H12.0032H17.4592V96.9317Z" fill="#F2F2F2"/>
</g>
<defs>
<clipPath id="clip0_388_229">
<rect width="111.739" height="116.774" fill="white"/>
</clipPath>
</defs>
</svg>
