<svg width="30" height="30" viewBox="0 0 30 30" fill="none" xmlns="http://www.w3.org/2000/svg">
<path d="M7.14844 0.0878906C3.46875 0.597656 0.580078 3.50977 0.0820312 7.20703C-0.0351562 8.11523 -0.0351562 21.8848 0.0820312 22.793C0.328125 24.6211 1.13672 26.2617 2.4375 27.5625C3.73242 28.8574 5.37891 29.6719 7.20703 29.918C8.11523 30.0352 21.8848 30.0352 22.793 29.918C26.5195 29.4141 29.4141 26.5195 29.918 22.793C30.0352 21.8848 30.0352 8.11523 29.918 7.20703C29.4141 3.48047 26.5195 0.585938 22.793 0.0820312C21.9258 -0.0292969 7.99219 -0.0292969 7.14844 0.0878906ZM22.1602 2.69531C23.5898 2.83008 24.7676 3.38672 25.7285 4.37695C26.666 5.34375 27.1699 6.45117 27.3047 7.83984C27.3809 8.68359 27.3809 21.3164 27.3047 22.1602C27.1699 23.5488 26.666 24.6562 25.7285 25.623C24.7676 26.6133 23.5898 27.1699 22.1602 27.3047C21.3164 27.3809 8.68359 27.3809 7.83984 27.3047C6.41016 27.1699 5.23242 26.6133 4.27148 25.623C3.33398 24.6562 2.83008 23.5488 2.69531 22.1602C2.61914 21.3164 2.61914 8.68359 2.69531 7.83984C2.83008 6.41016 3.38672 5.23242 4.37695 4.27148C5.30859 3.36328 6.46289 2.82422 7.73438 2.70117C8.47852 2.63086 21.4043 2.625 22.1602 2.69531Z" fill="#031059"/>
<path d="M22.3418 5.16202C21.9023 5.33194 21.498 5.71866 21.2988 6.16398C20.7305 7.40616 21.5918 8.81827 22.9629 8.89444C23.625 8.9296 24.2988 8.59562 24.6621 8.04484C24.9023 7.68741 24.9844 7.38273 24.9785 6.8964C24.9668 5.59562 23.584 4.68155 22.3418 5.16202Z" fill="#031059"/>
<path d="M13.9453 7.35345C12.2461 7.59368 10.7695 8.33196 9.55079 9.55071C8.23829 10.8574 7.51173 12.4101 7.31837 14.3144C7.12501 16.1367 7.70509 18.1699 8.8418 19.6581C9.18165 20.1093 9.89063 20.8183 10.3418 21.1581C11.8301 22.2949 13.8633 22.8749 15.6914 22.6816C17.5899 22.4882 19.1426 21.7616 20.4492 20.4491C21.7617 19.1425 22.4883 17.5898 22.6816 15.6913C22.8399 14.1855 22.4766 12.5097 21.6973 11.162C20.127 8.43157 17.0508 6.91985 13.9453 7.35345ZM16.1719 10.0781C17.9941 10.5175 19.4824 12.0058 19.9219 13.8281C20.0801 14.5077 20.0801 15.4921 19.9219 16.1718C19.5762 17.6249 18.5566 18.8847 17.209 19.5409C16.4707 19.8984 15.8438 20.039 15 20.039C14.1563 20.039 13.5293 19.8984 12.791 19.5409C11.4434 18.8847 10.4238 17.6249 10.0781 16.1718C9.91993 15.4921 9.91993 14.5077 10.0781 13.8281C10.5117 12.0234 11.9941 10.5234 13.7988 10.0839C14.4551 9.91985 15.5039 9.91985 16.1719 10.0781Z" fill="#031059"/>
</svg>
