<svg width="43" height="31" viewBox="0 0 43 31" fill="none" xmlns="http://www.w3.org/2000/svg">
<path d="M15.2578 1.9875C14.5234 2.79531 14.2297 3.82344 14.45 4.925C14.7437 6.1 14.45 7.12813 13.4219 8.15625C12.6141 8.96406 11.9531 10.2859 11.9531 11.0938C11.9531 12.4156 12.4672 12.5625 15.9922 12.5625C18.1953 12.5625 20.0312 12.8563 20.0312 13.2969C20.0312 13.7375 22.3812 14.0312 25.5391 14.0312C28.6969 14.0312 31.0469 13.7375 31.0469 13.2969C31.0469 12.8563 32.8828 12.5625 35.0859 12.5625C38.7578 12.5625 39.125 12.4156 39.125 10.9469C39.125 10.0656 38.5375 8.74375 37.8766 8.00938C37.2156 7.275 36.6281 5.58594 36.6281 4.3375C36.4812 -0.289062 31.4875 -0.289062 31.3406 4.3375C31.3406 6.6875 29.7984 9.11094 28.7703 8.52344C28.4031 8.30313 28.3297 7.12813 28.6234 5.95312C28.9172 4.11719 28.6969 3.67656 27.0812 2.94219C25.3922 2.13438 24.8781 2.20781 23.6297 3.52969C22.3812 4.77813 22.2344 5.29219 22.8953 6.54063C23.9234 8.45 23.0422 9.11094 21.2797 7.78906C20.325 7.12813 20.1047 6.32031 20.3984 5.07188C20.9125 3.08906 19.2969 0.812501 17.4609 0.812501C16.9469 0.812501 15.9187 1.32656 15.2578 1.9875ZM19.2969 4.11719C19.2969 5.58594 18.9297 5.95312 17.5344 5.95312C16.5797 5.95312 15.625 5.5125 15.4047 4.99844C14.8906 3.38281 15.6984 2.28125 17.5344 2.28125C18.9297 2.28125 19.2969 2.64844 19.2969 4.11719ZM35.8203 4.11719C35.8203 5.73281 33.5437 6.54063 32.3687 5.36563C31.1203 4.11719 32.2953 2.13438 34.1312 2.42813C35.2328 2.575 35.8203 3.1625 35.8203 4.11719ZM28.1094 5.07188C28.0359 6.39375 26.7141 7.56875 25.4656 7.275C23.85 6.98125 23.1891 4.55781 24.5109 3.67656C25.4656 3.08906 28.1094 4.11719 28.1094 5.07188ZM20.4719 8.45C22.675 10.1391 20.8391 11.2406 16.2859 10.9469L12.3203 10.7266L14.0094 9.0375C15.8453 7.20156 18.3422 6.98125 20.4719 8.45ZM37.0687 8.67031C39.1984 10.5797 38.6109 11.0938 34.3516 11.0938C31.5609 11.0938 30.3125 10.8 30.3125 10.1391C30.3125 7.49531 34.6453 6.46719 37.0687 8.67031ZM29.4312 10.8734L30.4594 12.5625H25.9797C22.5281 12.5625 21.5 12.3422 21.5 11.4609C21.5 8.59688 27.5953 8.15625 29.4312 10.8734Z" fill="black"/>
<path d="M0.717187 13.8109C0.423437 14.0312 0.203125 17.4094 0.203125 21.2281V28.2047L3.21406 27.7641C4.82969 27.5438 6.73906 26.8828 7.47344 26.2219C9.30937 24.5328 10.925 24.7531 18.0484 27.6172C21.5734 29.0125 25.025 30.1875 25.6859 30.1875C27.4484 30.1141 42.3562 22.6969 42.5766 21.7422C42.7234 21.3016 42.3562 20.3469 41.8422 19.6125C40.8875 18.3641 40.6672 18.3641 35.1594 19.9062C31.5609 20.8609 29.1375 21.2281 28.6234 20.7875C28.1094 20.4203 25.1719 19.0984 22.0875 17.85C18.0484 16.1609 15.2578 15.5 12.3203 15.5C10.1172 15.5 7.03281 14.9859 5.56406 14.3984C2.7 13.2234 1.45156 13.0031 0.717187 13.8109ZM3.875 21.0078C3.875 26.075 3.65469 27.25 2.77344 27.25C1.89219 27.25 1.67188 26.075 1.67188 21.0078C1.67188 15.9406 1.89219 14.7656 2.77344 14.7656C3.65469 14.7656 3.875 15.9406 3.875 21.0078ZM6.37187 16.675C6.95937 18.1438 6.95937 23.8719 6.37187 25.3406C5.41719 27.7641 4.60938 25.4875 4.60938 20.5672C4.60938 15.7938 5.34375 14.1047 6.37187 16.675ZM21.5 18.7313C25.3922 20.2734 27.8156 21.5953 27.9625 22.4031C28.2562 23.8719 28.1828 23.8719 23.1891 22.4031C20.9859 21.7422 19.0031 21.4484 18.7828 21.5953C18.3422 22.1094 25.5391 24.3125 27.4484 24.3125C28.1828 24.3125 29.0641 23.8719 29.3578 23.3578C29.9453 22.4031 37.6562 19.9062 40.0797 19.9062C40.7406 19.9062 41.3281 20.4203 41.3281 21.0813C41.3281 22.55 28.4031 28.7188 25.3922 28.7188C24.1437 28.7188 20.7656 27.6906 17.8281 26.5156C14.8906 25.2672 11.3656 24.3125 10.0437 24.3125C7.54687 24.3125 7.54687 24.3125 7.54687 20.7875C7.54687 18.8047 7.76719 16.9688 8.06094 16.7484C9.23594 15.5 15.6984 16.4547 21.5 18.7313Z" fill="black"/>
</svg>
