<svg width="30" height="30" viewBox="0 0 30 30" fill="none" xmlns="http://www.w3.org/2000/svg">
<g clip-path="url(#clip0_388_276)">
<path d="M3.34341 0.0419922C1.70864 0.317383 0.302392 1.75293 0.050439 3.41113C0.00942334 3.68652 -0.00815478 7.43652 0.00356397 15.2412L0.0211421 26.667L0.185205 27.1357C0.648095 28.4424 1.527 29.3213 2.83364 29.7842L3.30239 29.9482H14.9918H26.6813L27.15 29.7842C28.5036 29.3037 29.4352 28.3311 29.8571 26.96C29.9567 26.626 29.9625 26.0928 29.9625 14.9482V3.28809L29.7985 2.81934C29.3356 1.5127 28.4567 0.633789 27.15 0.170898L26.6813 0.00683594L15.1676 0.000976562C8.66958 -0.00488281 3.51919 0.0126953 3.34341 0.0419922ZM8.8688 5.69043C9.61294 5.88965 10.2165 6.39355 10.5563 7.1084C10.7907 7.6123 10.8434 8.32129 10.6852 8.86035C10.3688 9.9502 9.37856 10.7002 8.27114 10.7002C7.25161 10.7002 6.35513 10.1436 5.93911 9.25293C5.01919 7.31348 6.79458 5.15137 8.8688 5.69043ZM20.3649 11.6436C22.4098 11.8721 23.6344 13.0439 24.068 15.1885C24.2672 16.1729 24.3083 17.0576 24.3083 20.5674V23.9541L24.109 24.1533L23.9098 24.3525H22.3043C20.8161 24.3525 20.693 24.3467 20.5172 24.2354C20.4118 24.1709 20.3122 24.0596 20.2946 23.9893C20.2829 23.9131 20.2594 22.3135 20.2477 20.4268C20.2301 17.4033 20.2184 16.958 20.1305 16.6475C19.9723 16.0967 19.7555 15.7041 19.4684 15.4521C19.1168 15.1416 18.777 15.0361 18.1559 15.0361C17.7047 15.0361 17.6051 15.0596 17.2887 15.2119C16.861 15.4287 16.5563 15.751 16.3336 16.2314C15.9645 17.0283 15.9704 16.9756 15.9352 20.6729L15.9 24.0537L15.7653 24.1885C15.6364 24.3232 15.6071 24.3232 14.0543 24.3408C12.32 24.3584 12.2028 24.3408 12.068 24.0186C12.0211 23.8955 12.0036 22.3252 12.0153 17.9775L12.0329 12.0947L12.1969 11.9541L12.361 11.8135H13.9723C14.9625 11.8135 15.6305 11.8369 15.695 11.8721C15.8883 11.9775 15.9528 12.1709 15.9879 12.7393L16.0172 13.2842L16.2458 12.9912C17.0368 11.9482 18.5836 11.4443 20.3649 11.6436ZM10.0114 11.9775C10.1227 12.0889 10.1872 12.2295 10.2165 12.4053C10.234 12.5459 10.2458 15.1943 10.234 18.2881C10.2165 23.5908 10.2106 23.9248 10.111 24.0654C9.92349 24.3408 9.79458 24.3584 8.1481 24.3408L6.61294 24.3232L6.45474 24.1592L6.29067 24.001L6.2731 18.1826C6.26724 14.9893 6.2731 12.3057 6.29067 12.2354C6.30825 12.1592 6.39614 12.0303 6.47817 11.9541L6.63052 11.8135H8.23599H9.84731L10.0114 11.9775Z" fill="#F24405"/>
</g>
<defs>
<clipPath id="clip0_388_276">
<rect width="30" height="30" fill="white"/>
</clipPath>
</defs>
</svg>
