<svg width="17" height="25" viewBox="0 0 17 25" fill="none" xmlns="http://www.w3.org/2000/svg">
<path d="M5.48207 0.558363C4.84463 0.782376 3.53621 1.82777 2.59683 2.87316C-0.22131 5.972 -0.556803 9.36952 1.42261 14.0738C2.39554 16.3886 5.75047 21.5782 7.29373 23.1836L8.16602 24.0797L9.0383 23.1836C10.5816 21.5782 13.9365 16.3886 14.9094 14.0738C16.8888 9.36952 16.5533 5.972 13.7352 2.87316C11.3532 0.222344 8.60216 -0.524364 5.48207 0.558363ZM12.0577 2.16379C14.4062 3.76921 15.6811 6.53203 15.4462 9.5562C15.3456 10.9003 14.8759 12.5804 14.2384 14.0365C13.0642 16.7246 8.87055 22.6609 8.16602 22.6609C7.42793 22.6609 3.26782 16.7246 2.02649 13.8871C-0.187761 8.88416 0.919366 4.10523 4.81109 1.82777C7.26018 0.409022 9.67573 0.521028 12.0577 2.16379Z" fill="#828282"/>
<path d="M6.65619 5.26263C4.97872 6.04667 4.07289 8.58548 4.77743 10.6016C5.18002 11.7963 6.95813 13.1404 8.09881 13.1404C9.94402 13.1404 11.8563 11.0496 11.8563 9.03351C11.8563 6.27069 9.00464 4.21724 6.65619 5.26263ZM10.2124 6.75605C10.8834 7.50276 11.1853 8.21213 11.1853 9.03351C11.1853 10.6389 9.60853 12.3937 8.16591 12.3937C7.42782 12.3937 6.79038 12.0577 6.1194 11.311C4.81097 9.81755 4.81097 8.24946 6.1194 6.75605C6.79038 6.00934 7.42782 5.67332 8.16591 5.67332C8.90399 5.67332 9.54143 6.00934 10.2124 6.75605Z" fill="#828282"/>
</svg>
