<svg width="20" height="27" viewBox="0 0 20 27" fill="none" xmlns="http://www.w3.org/2000/svg">
<path d="M8.88904 0.0574257C4.76885 0.485083 1.35599 3.14078 0.312684 6.73099C-0.129397 8.25683 -0.0999248 10.0572 0.383416 11.5619C0.966963 13.3834 1.93954 14.7879 5.19915 18.5048C5.83574 19.2281 6.35445 19.8405 6.35445 19.8564C6.35445 19.8775 6.21888 19.9092 6.04794 19.925C4.51539 20.1098 2.41699 20.7645 1.42673 21.3717C0.931596 21.6726 0.365733 22.2217 0.177112 22.5807C0.0415409 22.8394 0.0179633 22.9556 0.0179633 23.3357C0.0238577 23.9059 0.188901 24.2544 0.678137 24.7137C1.51514 25.5057 2.80012 26.0706 4.73349 26.4983C6.41929 26.8731 7.79858 27.0051 10.0385 26.9998C11.8775 26.9998 12.8147 26.9365 14.194 26.7147C17.1117 26.2396 19.2337 25.2523 19.8409 24.0907C19.9705 23.8373 19.9941 23.7106 20 23.3357C20 22.7602 19.835 22.417 19.3104 21.926C18.8683 21.5142 18.4851 21.2714 17.7307 20.9334C16.8347 20.5269 15.0546 20.0517 13.9759 19.925C13.805 19.9092 13.6635 19.8775 13.6635 19.8564C13.6635 19.8405 14.3178 19.0803 15.1076 18.1669C17.7601 15.131 18.6855 13.8481 19.3575 12.3011C19.8114 11.2346 20 10.2842 19.9941 9.00128C19.9941 7.89253 19.9057 7.3276 19.611 6.42477C18.2317 2.26963 13.6753 -0.433588 8.88904 0.0574257ZM11.7478 1.21368C14.8483 1.79973 17.3652 3.77435 18.3672 6.41421C18.715 7.32232 18.8152 7.89253 18.8152 8.97488C18.8211 10.4479 18.5559 11.4299 17.7955 12.8027C17.0646 14.1279 16.5046 14.8459 13.6753 18.1035C12.6556 19.2756 11.4236 20.7117 10.9403 21.2977C10.457 21.8785 10.0385 22.359 10.009 22.359C9.9854 22.359 9.48438 21.7835 8.90083 21.0866C8.31729 20.3844 7.20914 19.0908 6.43697 18.2091C3.69018 15.0677 2.87086 14.0223 2.19889 12.808C1.7686 12.0266 1.52693 11.4141 1.33831 10.6116C1.14379 9.80379 1.14379 8.241 1.33831 7.44376C1.92775 4.97285 3.57818 3.04047 6.05973 1.90533C6.94389 1.49879 7.89289 1.24008 8.94799 1.10809C9.57279 1.02889 11.0759 1.08697 11.7478 1.21368ZM8.16993 21.9736C8.68274 22.5913 9.21324 23.246 9.3547 23.4202C9.67889 23.8426 9.96183 23.9587 10.286 23.7951C10.3568 23.7581 10.7458 23.3252 11.1407 22.8341C11.5415 22.3379 12.0779 21.6884 12.3314 21.3875L12.7911 20.8437L13.1271 20.8807C13.8227 20.9546 15.2373 21.2344 15.9505 21.4403C17.4654 21.8838 18.6148 22.5596 18.7975 23.114C19.2632 24.5501 14.8954 25.9756 10.009 25.9756C6.26603 25.9756 2.7176 25.1519 1.53872 24.0062C1.02001 23.5047 1.05538 23.0929 1.6625 22.5702C2.45825 21.8838 4.12047 21.303 6.27782 20.9651C7.30345 20.8015 7.10893 20.6959 8.16993 21.9736Z" fill="#F24405"/>
<path d="M9.77908 2.18496C9.24859 2.44895 9.48436 3.16699 10.1033 3.16699C10.3273 3.16699 10.6574 2.85549 10.6574 2.63902C10.6574 2.51759 10.6043 2.41727 10.4569 2.29056C10.2388 2.09521 10.0266 2.06353 9.77908 2.18496Z" fill="#F24405"/>
<path d="M12.0013 2.63387C11.8421 2.76059 11.8068 2.82394 11.8068 2.99817C11.8068 3.26744 11.9777 3.43639 12.3549 3.5631C13.8226 4.04884 15.196 5.19982 15.8739 6.50919C16.2453 7.22195 16.4928 8.19342 16.4928 8.90618C16.4928 9.16489 16.5164 9.21769 16.6932 9.37608C16.9703 9.62423 17.2001 9.61895 17.4772 9.3708L17.6894 9.18073L17.654 8.6158C17.5067 6.31912 16.1392 4.28115 13.9405 3.08793C13.4041 2.79754 12.5848 2.48076 12.3549 2.48076C12.2547 2.48076 12.1133 2.54412 12.0013 2.63387Z" fill="#F24405"/>
<path d="M9.1543 5.36379C8.51181 5.47466 7.72196 5.84952 7.20325 6.29302C5.84165 7.45456 5.50566 9.10711 6.33088 10.6118C6.56076 11.0289 6.69633 11.1926 7.11484 11.5675C7.53334 11.9423 7.71607 12.0638 8.18173 12.2697C9.39597 12.8029 10.6043 12.8029 11.8363 12.2644C12.3019 12.0638 12.4787 11.9476 12.9031 11.5675C13.3275 11.1873 13.4572 11.0289 13.6812 10.6118C14.2824 9.50837 14.2824 8.44187 13.6812 7.3384C13.4572 6.92131 13.3275 6.76291 12.9031 6.38277C12.4846 6.00791 12.3019 5.88648 11.8363 5.68057C10.9639 5.30043 10.1033 5.19484 9.1543 5.36379ZM10.6102 6.39333C11.1525 6.49365 11.6535 6.7418 12.0779 7.12194C13.2509 8.1726 13.2509 9.77764 12.0779 10.8283C11.6594 11.1979 11.2645 11.4038 10.6868 11.5358C8.89495 11.9476 7.06179 10.6541 7.06179 8.97512C7.06179 7.78718 8.02847 6.689 9.31935 6.40917C9.70838 6.3247 10.2153 6.31942 10.6102 6.39333Z" fill="#F24405"/>
</svg>
