<svg width="47" height="33" viewBox="0 0 47 33" fill="none" xmlns="http://www.w3.org/2000/svg">
<path d="M12.3475 0.222927C8.20508 0.462982 3.98305 1.18316 3.02712 1.74329C0.477966 3.18362 0 5.66421 0 17.667C0 28.1495 0 28.3095 2.23051 30.47L4.38136 32.7106L22.1458 32.9506C32.7407 33.1107 40.7864 32.8706 41.9814 32.3905C46.2034 30.7901 47 28.2295 47 16.6268C47 4.784 46.2831 2.38344 42.3 1.18316C39.0339 0.222931 21.9068 -0.337204 12.3475 0.222927ZM25.1729 13.106C28.2 14.9464 30.6695 16.5468 30.6695 16.7068C30.6695 17.0269 19.5966 23.5084 19.039 23.5084C18.8797 23.5084 18.7203 20.4677 18.7203 16.7068C18.7203 12.9459 18.9593 9.90521 19.1983 9.90521C19.4373 9.90521 22.1458 11.3455 25.1729 13.106Z" fill="black"/>
</svg>
