<svg width="47" height="47" viewBox="0 0 47 47" fill="none" xmlns="http://www.w3.org/2000/svg">
<path d="M18.3594 2.20322C16.5235 3.08447 13.9532 4.84697 12.5579 6.09541C9.84067 8.66572 6.60942 14.8345 6.60942 17.5517C6.60942 18.5063 5.72817 20.2688 4.62661 21.5907C1.10161 25.7767 -0.293705 32.0188 1.39536 36.3517C1.76254 37.2329 1.54223 39.0688 0.954732 40.9782C-0.660893 45.5313 4.45843e-05 46.5595 3.89223 45.8985C7.05005 45.3845 8.22504 45.311 14.9079 45.6048C19.0204 45.7517 23.4266 43.9892 25.9969 41.1985C26.8047 40.3173 28.1266 39.6563 29.0079 39.6563C29.8891 39.6563 31.6516 39.2892 32.9735 38.8485C34.8829 38.1876 35.9844 38.261 39.5094 39.5829C46.3391 42.1532 48.3219 40.0235 45.6047 33.1938C44.136 29.522 44.136 29.1548 45.2375 24.822C46.2657 21.0032 46.2657 19.6079 45.5313 16.3767C44.3563 11.1626 40.8313 6.02197 36.425 3.30478C31.5782 0.367279 23.5 -0.146782 18.3594 2.20322ZM33.7813 5.14072C39.2891 8.00478 43.3282 14.3938 43.3282 20.122C43.3282 21.4438 42.8141 24.0142 42.2266 25.7767C41.1985 28.861 41.1985 29.3751 42.5938 33.3407C43.4016 35.7642 43.9157 37.8204 43.7688 37.9673C43.6954 38.1142 41.6391 37.5267 39.3625 36.6454C35.8375 35.2501 34.736 35.1032 32.8266 35.7642C28.0532 37.4532 25.7032 37.5267 21.8844 36.4251C14.1 34.1485 9.54692 28.1267 9.54692 20.0485C9.54692 7.56416 22.6922 -0.513969 33.7813 5.14072ZM8.29848 28.1267C10.3547 32.6798 15.0547 37.086 19.7547 38.922L23.0594 40.1704L20.9297 41.5657C18.8 42.961 18.3594 42.961 8.81254 42.447C7.78442 42.3735 6.09536 42.5938 4.99379 42.8876L2.93754 43.4751L3.96567 40.6845C4.55317 38.9954 4.70005 37.2329 4.33286 36.3517C3.37817 33.8548 3.59848 28.7142 4.77348 26.4376C5.43442 25.1892 6.02192 24.2345 6.24223 24.2345C6.38911 24.2345 7.27036 25.997 8.29848 28.1267Z" fill="black"/>
<path d="M17.4047 12.9985C17.1109 13.2188 16.8906 13.8798 16.8906 14.4673C16.8906 15.2017 18.8734 15.422 25.9969 15.422C34.8828 15.422 37.6734 14.761 35.1766 13.1454C34.0016 12.411 18.1391 12.2642 17.4047 12.9985Z" fill="black"/>
<path d="M17.4047 18.8001C17.1109 19.0938 16.8906 19.7548 16.8906 20.3423C16.8906 21.1501 18.7266 21.297 26.2906 21.1501C34.0016 20.9298 35.6172 20.7095 35.6172 19.8282C35.6172 18.947 34.075 18.7267 26.7312 18.5063C21.8844 18.4329 17.6984 18.5798 17.4047 18.8001Z" fill="black"/>
<path d="M16.8906 25.7032C16.8906 27.172 17.2578 27.2454 22.9859 27.0251C27.7594 26.8782 29.0078 26.5845 29.0078 25.7032C29.0078 24.822 27.7594 24.5282 22.9859 24.3813C17.2578 24.161 16.8906 24.2345 16.8906 25.7032Z" fill="black"/>
</svg>
