<svg width="122" height="117" viewBox="0 0 122 117" fill="none" xmlns="http://www.w3.org/2000/svg">
<g clip-path="url(#clip0_388_221)">
<path d="M57.3367 0.364975C51.3023 1.41412 45.9068 5.42823 43.5167 10.6283C38.9495 20.618 44.0137 31.9989 54.568 35.4657C64.4124 38.7043 75.3454 33.5726 78.54 24.1988C81.8531 14.5512 76.7416 4.35628 67.0155 1.11762C63.6551 5.72205e-05 60.6971 -0.22802 57.3367 0.364975ZM63.4185 5.13173C68.743 6.20369 73.1919 10.4915 74.3041 15.6232C74.9667 18.6337 74.5644 21.2794 73.0026 24.3128C70.8254 28.6006 65.6666 31.7024 60.6971 31.7024C55.7275 31.7024 50.5687 28.6006 48.3916 24.3128C46.2854 20.2075 46.2618 16.353 48.2969 12.3161C49.5038 9.96692 52.1069 7.4581 54.5443 6.29491C57.5734 4.88085 60.3421 4.51593 63.4185 5.13173Z" fill="#F2F2F2"/>
<path d="M24.3722 19.067C21.2248 19.5688 17.4385 21.1881 15.0957 23.0127C14.2911 23.6513 13.0369 24.9057 12.3033 25.7952C7.42846 31.8164 6.88417 39.9358 10.9545 46.5956C11.8537 48.0781 14.5514 50.9518 15.853 51.7957C16.3026 52.0922 16.6812 52.3887 16.6812 52.4571C16.6812 52.5256 15.9476 52.8905 15.0721 53.301C10.0079 55.6274 5.32232 60.1432 2.83756 65.0925C0.471116 69.8364 0.11615 71.8207 0.11615 80.4647V87.2157L0.755089 87.8543L1.39403 88.4929H18.6217H35.8731L36.441 87.9455C37.5533 86.8736 37.4823 85.1858 36.2517 84.2963C35.5891 83.8174 35.3998 83.8174 20.2072 83.749L4.84903 83.7034V80.5559C4.8727 76.6558 5.18034 73.1663 5.70095 71.3189C6.17424 69.6083 7.85441 66.096 8.84832 64.6819C11.6407 60.7819 16.1606 57.6344 21.0592 56.1976C23.0233 55.6046 23.4966 55.5589 27.0936 55.5589C30.6669 55.5589 31.1639 55.6046 33.0807 56.1747C34.2166 56.5169 35.8968 57.1555 36.796 57.5888C38.8548 58.5923 39.825 58.6151 40.8663 57.7257C41.4816 57.2011 41.6472 56.8818 41.6472 56.1747C41.6472 54.8519 41.0083 54.1221 39.1624 53.301C38.2632 52.8905 37.5296 52.5256 37.5296 52.4571C37.5059 52.3887 37.8609 52.115 38.2869 51.8413C39.7304 50.8606 42.0495 48.4658 43.0907 46.8465C46.5931 41.4639 46.9244 34.8042 44.0136 29.0795C42.1205 25.3619 39.3518 22.6706 35.4945 20.8688C34.3349 20.3214 32.7257 19.7056 31.9448 19.5003C30.5249 19.1354 25.7211 18.8617 24.3722 19.067ZM31.5662 24.4724C38.1212 26.6847 42.1205 33.3217 40.7243 39.685C40.1327 42.3762 38.9021 44.5201 36.8197 46.55C34.5952 48.6939 32.4417 49.7887 29.3654 50.336C27.4722 50.6553 27.0699 50.6781 25.0821 50.3588C17.2492 49.1272 11.8774 41.8973 13.4629 34.6673C14.6224 29.3988 18.6217 25.3619 23.9462 24.0618C26.0287 23.5601 29.389 23.7425 31.5662 24.4724Z" fill="#F2F2F2"/>
<path d="M91.5791 19.067C88.4317 19.5688 84.6454 21.1881 82.3026 23.0355C80.2438 24.632 78.5873 26.6619 77.3804 29.0795C73.7598 36.1954 75.227 44.5886 81.0721 50.1308C81.9004 50.929 82.8706 51.7501 83.2256 51.9554C83.6042 52.1606 83.8882 52.3887 83.8882 52.4571C83.8645 52.5256 83.1309 52.8905 82.2317 53.301C80.3622 54.1221 79.7469 54.8519 79.7706 56.1976C79.7942 56.9046 79.9599 57.2467 80.5515 57.7485C81.5691 58.6151 82.563 58.5923 84.5981 57.5888C85.4973 57.1555 87.1775 56.5169 88.3134 56.1747C90.2302 55.6046 90.7272 55.5589 94.3005 55.5589C97.8975 55.5589 98.3708 55.6046 100.335 56.1976C105.233 57.6344 109.753 60.7819 112.546 64.6819C113.54 66.096 115.22 69.6083 115.693 71.3189C116.214 73.1663 116.521 76.6558 116.545 80.5559V83.7034L101.187 83.749C85.9943 83.8174 85.805 83.8174 85.1424 84.2963C83.9118 85.1858 83.8408 86.8736 84.9531 87.9455L85.521 88.4929H102.772H120L120.639 87.8543L121.278 87.2157V80.4647C121.278 73.3716 121.112 71.7066 120.071 68.6276C117.894 62.1047 112.569 56.1747 106.322 53.301C105.446 52.8905 104.713 52.5256 104.713 52.4571C104.713 52.3887 105.091 52.0922 105.541 51.7957C106.843 50.9518 109.54 48.0781 110.44 46.5956C114.534 39.8902 113.966 31.7252 109.02 25.7268C106.653 22.8531 102.891 20.4811 99.1517 19.5232C97.7318 19.1354 92.928 18.8617 91.5791 19.067ZM97.3296 24.0618C105.186 25.8408 109.919 33.755 107.553 41.1218C105.636 47.0974 99.0807 51.2255 92.786 50.4501C89.2363 49.9939 86.4913 48.6255 84.0302 46.071C80.1492 42.0113 79.2973 36.1498 81.8767 31.1778C84.7401 25.6812 91.2478 22.6706 97.3296 24.0618Z" fill="#F2F2F2"/>
<path d="M58.1176 47.2114C56.0588 47.4851 53.8344 48.2149 51.5863 49.3325C50.1664 50.0395 49.1488 50.7922 47.5396 52.3431C44.1793 55.5589 42.5228 58.7976 41.9312 63.2451C41.1739 69.3575 43.99 75.9032 48.9832 79.5752L50.403 80.6243L48.9122 81.2858C44.8656 83.0876 40.18 87.1017 37.7662 90.8649C34.4532 96.0194 33.483 100.284 33.483 109.704C33.483 114.79 33.6486 115.702 34.7372 116.318C35.4708 116.751 36.1571 116.774 60.6971 116.774C85.2371 116.774 85.9233 116.751 86.6569 116.318C87.7455 115.702 87.9111 114.79 87.9111 109.704C87.9111 104.39 87.6035 100.855 86.9646 98.437C85.0241 91.0702 79.8889 84.8893 72.9789 81.5595C71.7957 80.9893 70.9201 80.5103 71.0384 80.5103C71.1567 80.5103 71.9613 79.9629 72.8132 79.2787C77.5935 75.4699 80.1965 69.175 79.4629 63.2451C78.8713 58.7976 77.2148 55.5589 73.8308 52.2975C71.9377 50.4729 71.346 50.0852 69.1926 49.0816C67.8437 48.443 66.0452 47.7816 65.1933 47.5763C63.1818 47.143 60.0108 46.9605 58.1176 47.2114ZM64.0101 52.2747C68.9559 53.3922 73.2392 57.7485 74.3278 62.7205C75.7476 69.1522 71.559 75.926 64.9093 78.0243C62.4482 78.7997 58.9459 78.7997 56.4611 78.0243C54.3313 77.3401 51.6099 75.6523 50.2847 74.1698C48.2732 71.8891 46.735 68.0118 46.735 65.1837C46.7587 62.1047 48.2969 58.5239 50.6397 56.1519C54.1657 52.5484 59.0405 51.1343 64.0101 52.2747ZM64.2704 83.8174C72.6239 85.2086 79.321 90.8877 81.853 98.6879C82.5866 100.946 82.9416 104.298 82.9416 108.723V111.985H60.6971H38.4525V108.586C38.4525 104.162 38.8075 100.969 39.5411 98.6879C42.8777 88.4245 53.5504 81.9928 64.2704 83.8174Z" fill="#F2F2F2"/>
</g>
<defs>
<clipPath id="clip0_388_221">
<rect width="121.162" height="116.774" fill="white" transform="translate(0.11615)"/>
</clipPath>
</defs>
</svg>
