<svg width="281" height="353" viewBox="0 0 281 353" fill="none" xmlns="http://www.w3.org/2000/svg">
<path d="M22 97.8977C22 44.9349 64.9349 2 117.898 2H164.102C217.065 2 260 44.9349 260 97.8977V97.8977H22V97.8977Z" fill="#D9DDE4"/>
<path d="M22 97.8977C22 44.1064 65.6064 0.5 119.398 0.5H162.602C216.394 0.5 260 44.1064 260 97.8977C260 45.7633 217.065 3.5 164.102 3.5H117.898C64.9349 3.5 22 45.7633 22 97.8977ZM260 97.8977H22H260ZM22 97.8977V2V97.8977ZM260 2V97.8977V2Z" fill="#F24405"/>
<path d="M22 32.9151H260V216.286C260 282.007 206.722 335.286 141 335.286V335.286C75.2781 335.286 22 282.007 22 216.286V32.9151Z" fill="#D9DDE4"/>
<path d="M22 32.9151H260H22ZM260 335.286H22H260ZM141 335.286C73.8974 335.286 19.5 280.888 19.5 213.786V32.9151H24.5V216.286C24.5 282.007 76.6588 335.286 141 335.286ZM262.5 32.9151V213.786C262.5 280.888 208.103 335.286 141 335.286C205.341 335.286 257.5 282.007 257.5 216.286V32.9151H262.5Z" fill="#F24405"/>
<path d="M140.5 350L91.5696 322.565H189.43L140.5 350Z" fill="#F24405" stroke="#F24405" stroke-width="5"/>
<mask id="path-6-inside-1_354_473" fill="white">
<path d="M44.2213 53.7543C36.218 60.8787 23.8812 60.2322 16.6663 52.3103L13.3519 48.6711C6.13703 40.7492 6.77623 28.5519 14.7796 21.4276V21.4276C22.7829 14.3032 35.1197 14.9497 42.3345 22.8716L45.649 26.5108C52.8638 34.4327 52.2246 46.63 44.2213 53.7543V53.7543Z"/>
</mask>
<path d="M44.2213 53.7543C36.218 60.8787 23.8812 60.2322 16.6663 52.3103L13.3519 48.6711C6.13703 40.7492 6.77623 28.5519 14.7796 21.4276V21.4276C22.7829 14.3032 35.1197 14.9497 42.3345 22.8716L45.649 26.5108C52.8638 34.4327 52.2246 46.63 44.2213 53.7543V53.7543Z" fill="#031059"/>
<path d="M29.73 66.6541L0.288242 34.3273L29.73 66.6541ZM29.2709 8.52779L58.7126 40.8546L29.2709 8.52779ZM49.0157 30.2074C56.2306 38.1293 55.5914 50.3266 47.588 57.451C39.5847 64.5753 27.2479 63.9288 20.0331 56.007L16.6663 52.3103C22.0218 58.1906 32.8512 57.1821 40.8546 50.0577C48.8579 42.9334 51.0044 32.3911 45.649 26.5108L49.0157 30.2074ZM0.288242 34.3273L29.2709 8.52779L0.288242 34.3273Z" fill="#F24405" mask="url(#path-6-inside-1_354_473)"/>
<mask id="path-8-inside-2_354_473" fill="white">
<path d="M238.155 56.9655C229.786 50.265 228.508 38.1095 235.302 29.8154L238.39 26.0451C245.184 17.7511 257.476 16.4592 265.845 23.1597V23.1597C274.215 29.8601 275.492 42.0156 268.699 50.3097L265.611 54.08C258.817 62.3741 246.525 63.666 238.155 56.9655V56.9655Z"/>
</mask>
<path d="M238.155 56.9655C229.786 50.265 228.508 38.1095 235.302 29.8154L238.39 26.0451C245.184 17.7511 257.476 16.4592 265.845 23.1597V23.1597C274.215 29.8601 275.492 42.0156 268.699 50.3097L265.611 54.08C258.817 62.3741 246.525 63.666 238.155 56.9655V56.9655Z" fill="#031059"/>
<path d="M223.001 44.8332L250.691 11.0274L223.001 44.8332ZM281 35.292L253.31 69.0978L281 35.292ZM262.442 57.9481C255.649 66.2422 243.357 67.5341 234.987 60.8336C226.618 54.1331 225.34 41.9776 232.134 33.6835L235.302 29.8154C230.258 35.9733 232.954 46.397 241.324 53.0975C249.693 59.7979 260.567 60.2379 265.611 54.08L262.442 57.9481ZM250.691 11.0274L281 35.292L250.691 11.0274Z" fill="#F24405" mask="url(#path-8-inside-2_354_473)"/>
<path d="M146.375 293.144C146.25 293.222 144.828 294.253 143.219 295.44L140.289 297.589L139.664 297.683C138.586 297.839 137.859 298.214 137.609 298.737C137.492 298.979 137.461 298.995 136.969 299.026C136.688 299.05 136.273 299.144 136.047 299.245C135.633 299.417 135.086 299.933 135.086 300.136C135.086 300.206 134.836 300.3 134.328 300.417C130.859 301.19 128.273 302.05 125.867 303.214C124.555 303.854 123.945 304.073 121.742 304.714C119.195 305.464 118.258 305.862 117.633 306.464C117.141 306.948 117 307.292 117 308.034C117 308.573 117.031 308.729 117.25 309.19C118.023 310.815 120.273 312.136 123.289 312.729C123.945 312.862 124.375 312.878 126.961 312.862C130.68 312.847 142.602 312.519 149.148 312.253C150.719 312.19 152.672 312.136 153.484 312.144C155.383 312.151 155.867 312.042 156.352 311.534C156.727 311.144 156.82 310.784 156.898 309.44C157 307.753 156.93 304.386 156.766 303.151C156.43 300.644 155.656 298.761 154.453 297.487C153.484 296.472 153.227 296.503 152.695 297.667C152.109 298.956 152.016 299.112 151.57 299.565C151.109 300.034 150.695 300.214 149.578 300.456C148.867 300.604 147.375 300.604 146.742 300.456C146.188 300.323 145.469 300.003 145.312 299.823C145.18 299.659 145.5 299.339 146.258 298.878C148.75 297.354 149.477 296.612 149.188 295.909C149.047 295.573 147.234 293.175 147.047 293.073C146.828 292.956 146.641 292.979 146.375 293.144ZM143.07 305.308C146.469 308.323 147.703 309.464 147.703 309.589C147.703 309.753 147.68 309.753 145.969 309.776L144.227 309.792L143.469 309.104C143.047 308.722 141.688 307.487 140.438 306.362C139.195 305.229 137.641 303.823 136.984 303.237C135.727 302.112 135.57 301.878 136.008 301.776C136.125 301.745 136.625 301.604 137.117 301.472C137.609 301.331 138.109 301.214 138.227 301.206C138.398 301.198 139.273 301.94 143.07 305.308ZM137.508 305.839C141.906 309.815 141.586 309.511 141.523 309.667C141.484 309.776 141.273 309.792 139.781 309.792L138.094 309.784L134.734 306.706C132.258 304.433 131.375 303.581 131.375 303.456C131.375 303.3 131.492 303.253 132.586 302.948C133.25 302.769 133.836 302.62 133.891 302.628C133.938 302.636 135.57 304.081 137.508 305.839Z" fill="black" fill-opacity="0.1"/>
<path d="M150.555 313.237C150.555 313.534 150.969 315.69 151.047 315.784C151.156 315.925 153.547 315.925 153.664 315.784C153.734 315.698 154.227 313.425 154.227 313.175C154.227 313.097 153.867 313.073 152.391 313.073C150.586 313.073 150.555 313.073 150.555 313.237Z" fill="black" fill-opacity="0.1"/>
<path d="M121.102 313.198C121.102 313.362 121.594 315.956 121.648 316.097C121.719 316.276 121.75 316.276 123.008 316.276C123.719 316.276 124.312 316.245 124.336 316.214C124.367 316.159 124.852 313.909 124.852 313.815C124.852 313.792 124.734 313.776 124.602 313.776C124.172 313.776 122.844 313.55 122.023 313.347C121.203 313.144 121.102 313.12 121.102 313.198Z" fill="black" fill-opacity="0.1"/>
<path d="M145.148 313.284C144.727 313.3 144.383 313.323 144.383 313.331C144.422 313.815 144.859 315.847 144.938 315.894C145.117 316.003 147.297 315.979 147.445 315.862C147.531 315.8 147.656 315.354 147.812 314.565C147.945 313.901 148.055 313.331 148.055 313.292C148.055 313.229 146.852 313.229 145.148 313.284Z" fill="black" fill-opacity="0.1"/>
<path d="M128.078 313.753C127.203 313.769 126.492 313.792 126.492 313.808C126.492 313.878 126.898 316.026 126.93 316.136C126.969 316.261 127.102 316.276 128.242 316.276C129.172 316.276 129.539 316.253 129.602 316.175C129.695 316.065 130.156 313.8 130.102 313.737C130.078 313.714 129.969 313.706 129.859 313.714C129.75 313.729 128.945 313.745 128.078 313.753Z" fill="black" fill-opacity="0.1"/>
<line x1="138.5" y1="206" x2="138.5" y2="279" stroke="#2C3D73" stroke-opacity="0.1"/>
<line x1="63" y1="195.5" x2="213" y2="195.5" stroke="#2C3D73" stroke-opacity="0.1"/>
<line x1="101" y1="289.5" x2="176" y2="289.5" stroke="#2C3D73" stroke-opacity="0.1"/>
</svg>
