<svg width="30" height="36" viewBox="0 0 30 36" fill="none" xmlns="http://www.w3.org/2000/svg">
<path d="M16.2385 0.136379C15.6627 0.479717 15.6098 1.45368 16.1504 1.87409C16.2327 1.93715 16.6322 2.07729 17.0494 2.1894C18.3069 2.51872 18.9297 2.76397 20.0579 3.37357C21.6738 4.24943 23.1076 5.46162 24.4414 7.09423C26.3687 9.45556 27.6321 12.2863 28.2197 15.5726C28.3783 16.4625 28.4194 16.5746 28.6486 16.7778C29.0188 17.1001 29.4712 17.0721 29.7709 16.7007C30.0412 16.3644 30.0588 16.1471 29.8943 15.1942C28.7191 8.29942 24.3415 2.5958 18.6771 0.577812C18.0307 0.346586 16.785 0.0102539 16.5793 0.0102539C16.503 0.0102539 16.3502 0.066309 16.2385 0.136379Z" fill="#F24405"/>
<path d="M4.89202 2.24527C4.13989 2.53255 3.51116 3.15617 1.74837 5.38436C0.485031 6.97493 0.144224 7.78072 0.026704 9.3853C-0.143699 11.6695 0.502659 14.5634 1.93052 17.9127C2.52987 19.3281 2.80017 19.8816 3.56404 21.241C6.44328 26.384 10.2215 30.4831 14.6814 33.3139C17.2081 34.9184 19.3469 35.7383 21.2919 35.8574C22.6669 35.9485 23.8891 35.486 24.8057 34.5401C24.9174 34.428 25.5931 33.6222 26.31 32.7393C27.4969 31.2889 27.6321 31.0927 27.8612 30.5531C28.3019 29.5021 28.3078 28.5562 27.8671 27.4771C27.6262 26.8955 27.5674 26.8185 25.4403 24.282C23.3779 21.8155 23.2368 21.6614 22.8138 21.4232C21.9147 20.9187 20.9922 20.9677 20.1167 21.5703C19.9698 21.6754 19.3058 22.3971 18.6359 23.1889L17.4196 24.6183L16.8379 24.2469C14.2525 22.6213 10.8561 18.5433 9.59868 15.5584L9.36951 15.0259L10.4977 13.6665C11.7023 12.2161 11.9961 11.7817 12.19 11.123C12.4485 10.2261 12.3956 9.37128 12.0255 8.4674C11.8316 8.00494 11.6318 7.74569 9.63393 5.36334C7.35993 2.65167 7.17777 2.46949 6.48441 2.22425C6.06134 2.0771 5.30921 2.08411 4.89202 2.24527ZM6.20824 4.28428C6.57255 4.48748 10.3743 9.04196 10.533 9.46938C10.8385 10.2752 10.7092 10.5414 9.09922 12.4473C8.37647 13.2951 7.74774 14.0939 7.68898 14.2271C7.52446 14.6195 7.59497 15.3272 7.86526 16.0138C8.62326 17.9337 9.84547 19.8676 11.7082 22.0818C13.2418 23.9106 14.8165 25.319 16.4089 26.293C17.0729 26.7064 17.1611 26.7414 17.496 26.7344C17.7252 26.7344 17.9308 26.6853 18.0601 26.6083C18.1717 26.5382 18.8592 25.7744 19.5878 24.9196C20.3165 24.0648 20.9981 23.308 21.1097 23.2379C21.4035 23.0628 21.9206 23.1188 22.2144 23.3641C22.6316 23.7074 26.2042 28.0517 26.3452 28.381C26.5156 28.7874 26.5156 29.2499 26.3452 29.6563C26.216 29.9506 24.3239 32.3189 23.6717 32.9915C22.7315 33.9725 21.4094 34.0916 19.2353 33.3909C17.6488 32.8794 15.1985 31.464 13.183 29.8945C8.89356 26.5452 4.9684 21.1289 2.98232 15.8106C1.70723 12.3913 1.39581 9.77068 2.06567 8.13807C2.18319 7.84378 2.54162 7.36731 3.5758 6.12008C4.42781 5.08306 5.02716 4.41741 5.19169 4.31931C5.52075 4.1091 5.87918 4.1021 6.20824 4.28428Z" fill="#F24405"/>
</svg>
