<svg width="30" height="30" viewBox="0 0 30 30" fill="none" xmlns="http://www.w3.org/2000/svg">
<path d="M16.2386 0.10569C15.6627 0.392933 15.6098 1.20777 16.1504 1.55949C16.2327 1.61225 16.6323 1.7295 17.0495 1.82329C18.3069 2.09881 18.9298 2.30398 20.058 2.81399C21.6739 3.54675 23.1076 4.56089 24.4414 5.92677C26.3688 7.9023 27.6321 10.2706 28.2197 13.0199C28.3783 13.7644 28.4195 13.8582 28.6486 14.0282C29.0188 14.2979 29.4713 14.2744 29.771 13.9637C30.0413 13.6823 30.0589 13.5006 29.8944 12.7034C28.7192 6.93505 24.3415 2.16329 18.6771 0.475003C18.0307 0.281553 16.785 0.000171661 16.5794 0.000171661C16.503 0.000171661 16.3502 0.0470686 16.2386 0.10569Z" fill="#F24405"/>
<path d="M4.89202 1.87001C4.13989 2.11036 3.51116 2.63209 1.74837 4.49624C0.485031 5.82694 0.144224 6.50108 0.026704 7.8435C-0.143699 9.75455 0.502659 12.1756 1.93052 14.9777C2.52987 16.1618 2.80017 16.6249 3.56404 17.7622C6.44328 22.065 10.2215 25.4943 14.6814 27.8626C17.2081 29.205 19.3469 29.8909 21.2919 29.9906C22.6669 30.0668 23.8891 29.6799 24.8057 28.8885C24.9174 28.7947 25.5931 28.1205 26.31 27.3819C27.4969 26.1685 27.6321 26.0043 27.8612 25.5529C28.3019 24.6736 28.3078 23.8822 27.8671 22.9795C27.6262 22.4929 27.5674 22.4284 25.4403 20.3064C23.3779 18.2429 23.2368 18.1139 22.8138 17.9146C21.9147 17.4925 20.9922 17.5336 20.1167 18.0377C19.9698 18.1256 19.3058 18.7294 18.6359 19.3919L17.4196 20.5877L16.8379 20.277C14.2525 18.917 10.8561 15.5053 9.59868 13.008L9.36951 12.5625L10.4977 11.4253C11.7023 10.2118 11.9961 9.84835 12.19 9.29731C12.4485 8.54696 12.3956 7.83178 12.0255 7.07557C11.8316 6.68867 11.6318 6.47177 9.63393 4.47865C7.35993 2.21002 7.17777 2.0576 6.48441 1.85243C6.06134 1.72932 5.30921 1.73518 4.89202 1.87001ZM6.20824 3.57589C6.57255 3.74589 10.3743 7.55626 10.533 7.91385C10.8385 8.58799 10.7092 8.81075 9.09922 10.4052C8.37647 11.1146 7.74774 11.7828 7.68898 11.8942C7.52446 12.2225 7.59497 12.8146 7.86526 13.3891C8.62326 14.9953 9.84547 16.6132 11.7082 18.4657C13.2418 19.9957 14.8165 21.1739 16.4089 21.9888C17.0729 22.3346 17.1611 22.364 17.496 22.3581C17.7252 22.3581 17.9308 22.3171 18.0601 22.2526C18.1717 22.194 18.8592 21.555 19.5878 20.8398C20.3165 20.1246 20.9981 19.4915 21.1097 19.4329C21.4035 19.2863 21.9206 19.3332 22.2144 19.5384C22.6316 19.8257 26.2042 23.4602 26.3452 23.7357C26.5156 24.0757 26.5156 24.4626 26.3452 24.8026C26.216 25.0488 24.3239 27.0302 23.6717 27.593C22.7315 28.4137 21.4094 28.5133 19.2353 27.9271C17.6488 27.4992 15.1985 26.315 13.183 25.0019C8.89356 22.1998 4.9684 17.6684 2.98232 13.2191C1.70723 10.3583 1.39581 8.16592 2.06567 6.80005C2.18319 6.55384 2.54162 6.15522 3.5758 5.11176C4.42781 4.24417 5.02716 3.68727 5.19169 3.6052C5.52075 3.42933 5.87918 3.42347 6.20824 3.57589Z" fill="#F24405"/>
</svg>
