<?xml version="1.0" standalone="no"?>
<!DOCTYPE svg PUBLIC "-//W3C//DTD SVG 20010904//EN"
 "http://www.w3.org/TR/2001/REC-SVG-20010904/DTD/svg10.dtd">
<svg version="1.0" xmlns="http://www.w3.org/2000/svg"
 width="512.000000pt" height="512.000000pt" viewBox="0 0 512.000000 512.000000"
 preserveAspectRatio="xMidYMid meet">
<metadata>
Created by potrace 1.16, written by Peter Selinger 2001-2019
</metadata>
<g transform="translate(0.000000,512.000000) scale(0.100000,-0.100000)"
fill="#000000" stroke="none">
<path d="M2451 4994 c-54 -24 -100 -64 -125 -108 -13 -23 -153 -345 -311 -716
-158 -371 -290 -678 -294 -682 -3 -4 -348 -38 -767 -76 -663 -61 -766 -72
-801 -90 -105 -54 -153 -132 -153 -249 0 -84 21 -140 73 -193 18 -18 279 -249
580 -513 l548 -481 -6 -35 c-4 -19 -78 -350 -166 -734 -95 -418 -159 -721
-159 -752 0 -64 47 -164 94 -200 79 -60 170 -79 261 -54 22 6 329 184 682 395
353 211 647 384 653 384 6 0 300 -173 653 -383 353 -211 657 -389 676 -395
117 -40 263 17 324 125 56 102 58 85 -127 900 -91 402 -166 735 -166 741 0 5
246 225 548 489 301 264 561 495 579 513 18 18 40 49 50 69 21 44 29 167 14
214 -29 86 -114 160 -204 178 -23 5 -370 38 -772 75 -401 36 -733 69 -736 72
-3 4 -140 322 -304 706 -326 764 -320 753 -421 797 -55 23 -172 25 -223 3z"/>
</g>
</svg>
