<svg width="47" height="47" viewBox="0 0 47 47" fill="none" xmlns="http://www.w3.org/2000/svg">
<path d="M8.97391 0.337502C8.63805 0.654392 8.38615 1.76352 8.38615 2.79342C8.38615 4.37789 7.96632 4.61555 5.11149 4.61555C0.409401 4.61555 -0.262326 5.80391 0.0735377 13.8055C0.409401 19.8264 0.661298 20.7771 2.42458 22.1239C3.51614 22.9161 5.61528 23.6291 7.21063 23.6291C8.80598 23.6291 10.0655 23.946 10.0655 24.4214C10.0655 26.0058 16.195 31.4722 18.9658 32.3437C21.149 33.0567 21.8207 33.6905 21.8207 35.1165C21.8207 36.3049 21.2329 37.1763 20.1414 37.4932C17.4545 38.2854 14.1798 42.6427 14.4317 44.9402L14.6836 47H23.5H32.3164L32.5683 44.9402C32.8202 42.6427 29.5455 38.2854 26.8586 37.4932C25.7671 37.1763 25.1793 36.3049 25.1793 35.1165C25.1793 33.6905 25.851 33.0567 28.0342 32.3437C30.805 31.4722 36.9345 26.0058 36.9345 24.4214C36.9345 23.946 38.194 23.6291 39.7894 23.6291C41.3847 23.6291 43.4839 22.9161 44.5754 22.1239C46.3387 20.7771 46.5906 19.8264 46.9265 13.8055C47.2623 5.80391 46.5906 4.61555 41.8885 4.61555C39.0337 4.61555 38.6978 4.37789 38.4459 2.3973L38.194 0.258278L23.8359 0.020607C16.027 -0.0586166 9.30978 0.0998306 8.97391 0.337502ZM8.72202 10.2404C8.97391 11.5872 9.22581 14.4392 9.22581 16.5783C9.22581 20.1433 9.05788 20.4602 7.12667 20.4602C4.35579 20.4602 3.3482 18.4004 3.3482 12.6171C3.3482 7.86371 3.3482 7.78448 5.78321 7.78448C7.79839 7.78448 8.21822 8.1806 8.72202 10.2404ZM43.6518 12.6171C43.6518 18.4004 42.6442 20.4602 39.8733 20.4602C37.9421 20.4602 37.7742 20.1433 37.7742 16.5783C37.7742 14.4392 38.0261 11.5872 38.278 10.2404C38.7818 8.1806 39.2016 7.78448 41.2168 7.78448C43.6518 7.78448 43.6518 7.86371 43.6518 12.6171Z" fill="black"/>
</svg>
