<svg width="90" height="90" viewBox="0 0 90 90" fill="none" xmlns="http://www.w3.org/2000/svg">
<path d="M40.7988 0.175781C32.0625 1.01953 23.3965 4.58789 16.6113 10.1074C14.6074 11.7246 11.4434 14.9238 9.86133 16.9102C5.83594 21.9551 2.53125 28.7754 1.16016 34.8926C0.298828 38.7246 0.105469 40.6055 0.105469 45C0.105469 49.3945 0.298828 51.2754 1.16016 55.1074C2.54883 61.3477 5.94141 68.2734 10.1074 73.3887C11.7246 75.3926 14.9238 78.5566 16.9102 80.1387C21.9551 84.1641 28.7754 87.4688 34.8926 88.8398C38.7246 89.7012 40.6055 89.8945 45 89.8945C49.3945 89.8945 51.2754 89.7012 55.1074 88.8398C59.6953 87.8203 65.707 85.2539 69.6621 82.6348C76.5 78.082 81.7559 72.1055 85.3594 64.7754C87.5566 60.293 88.8047 56.2676 89.5957 51.1523C90.0176 48.3223 90.0176 41.6777 89.5957 38.8477C88.8047 33.7324 87.5566 29.707 85.3594 25.2246C83.0039 20.4434 80.3848 16.7871 76.6055 13.0605C72.8965 9.38672 69.5039 6.97852 64.7754 4.6582C60.3457 2.47852 56.2324 1.19531 51.3281 0.439453C49.1133 0.105469 43.1016 -0.0351562 40.7988 0.175781ZM50.625 4.5C59.5547 5.80078 67.623 9.82617 73.8984 16.1016C80.209 22.3945 84.1113 30.2344 85.5352 39.4629C85.7461 40.8164 85.834 42.4863 85.834 45C85.834 51.6445 84.5156 57.2695 81.6152 63.1406C75.5859 75.3223 64.3887 83.3906 50.5371 85.5352C47.8828 85.9395 42.1172 85.9395 39.4629 85.5352C30.2344 84.1113 22.3945 80.209 16.1016 73.8984C9.79102 67.6055 5.88867 59.7656 4.46484 50.5371C4.06055 47.8828 4.06055 42.1172 4.46484 39.4629C5.20312 34.7695 6.41602 30.8145 8.38477 26.8594C14.3086 14.9062 25.4355 6.75 38.8477 4.57031C42.2402 4.00781 47.0742 3.99023 50.625 4.5Z" fill="#031059"/>
<path d="M53.7891 28.7754C52.084 28.9688 50.291 29.8652 48.9375 31.2363C47.3027 32.8711 46.5117 34.9453 46.6172 37.3008L46.6699 38.707L45.3691 38.6016C40.2363 38.127 35.1035 35.7187 31.1484 31.9043C30.2168 30.9902 29.4082 30.2871 29.3379 30.3398C29.0566 30.5156 28.459 32.4668 28.3535 33.5039C28.1426 35.8242 28.9688 38.0918 30.6738 39.8496L31.7461 40.957H31.2012C30.9199 40.957 30.1465 40.7637 29.4961 40.5352L28.3008 40.1309V40.7637C28.3008 42.4336 29.2852 44.5781 30.709 46.0195C31.623 46.9336 33.8027 48.1641 34.541 48.1641C34.8223 48.1641 34.8398 48.1992 34.6289 48.3398C34.4883 48.4277 33.6621 48.5156 32.8184 48.5156C31.2891 48.5156 31.2715 48.5156 31.3945 48.9023C31.7812 50.2031 33.0645 51.7676 34.4531 52.6992C35.5781 53.4551 37.4238 54.1406 38.3906 54.1406L38.9355 54.1582L38.4082 54.5801C37.6523 55.2129 35.0859 56.4961 33.75 56.918C31.8867 57.5156 30.6211 57.709 28.5996 57.6914H26.6836L27.2285 58.0254C29.5312 59.4141 33.0996 60.6621 36.0352 61.1016C38.4609 61.4531 42.2402 61.3652 44.3848 60.9082C53.332 59.0098 60.0117 52.8398 62.4902 44.209C63 42.4336 63.2285 41.0098 63.3867 38.6719L63.5098 36.8262L64.8457 35.5781C66.375 34.1367 67.6055 32.5723 67.043 32.748C66.0059 33.082 63.5098 33.75 63.2637 33.75C63.0879 33.75 63.457 33.2578 64.2305 32.4668C65.25 31.4473 66.2695 29.9355 66.2695 29.4609C66.2695 29.4082 65.6895 29.6543 64.9863 29.9707C64.2832 30.3047 63.123 30.7266 62.4199 30.9199L61.1367 31.2715L60.2402 30.6035C58.1836 29.0742 56.2148 28.5117 53.7891 28.7754Z" fill="#031059"/>
</svg>
