<svg width="30" height="30" viewBox="0 0 30 30" fill="none" xmlns="http://www.w3.org/2000/svg">
<path d="M13.6618 0.0363827C10.7617 0.317951 8.08469 1.38556 5.73641 3.1923C4.59162 4.0722 3.10633 5.72641 2.24921 7.0756C1.87936 7.65633 1.15726 9.13457 0.898952 9.83849C-0.29867 13.1 -0.29867 16.9012 0.893081 20.1333C1.1103 20.7258 1.77369 22.1219 2.08483 22.6499L2.25508 22.9432L1.41557 25.9876C0.951788 27.6653 0.570193 29.1083 0.570193 29.1963C0.570193 29.4251 0.793279 29.6597 1.03985 29.6949C1.19836 29.7184 1.95568 29.5072 4.20415 28.8092C5.83034 28.3106 7.19234 27.8999 7.23344 27.8999C7.27453 27.8999 7.662 28.0818 8.09056 28.3047C11.8361 30.2463 16.245 30.5338 20.1725 29.0966C20.8769 28.8385 22.3564 28.117 22.9376 27.7474C24.822 26.5508 26.5774 24.7968 27.775 22.9138C28.1449 22.3331 28.867 20.8549 29.1253 20.1509C29.4129 19.3649 29.7241 18.1565 29.8767 17.2238C29.9824 16.5609 30 16.1914 30 14.9947C30 13.364 29.9119 12.5955 29.5421 11.1877C29.2603 10.1318 29.002 9.44547 28.4854 8.39545C27.7104 6.81749 26.9061 5.69708 25.6146 4.4007C24.3172 3.11017 23.1959 2.30653 21.6166 1.53222C20.1725 0.822428 18.8339 0.400076 17.2723 0.153702C16.4093 0.0187836 14.4837 -0.045742 13.6618 0.0363827ZM17.2723 1.32104C20.2781 1.83725 22.8377 3.1923 24.9629 5.38032C26.9883 7.46862 28.2505 9.98514 28.7319 12.9123C28.8846 13.8274 28.8846 16.1621 28.7319 17.0771C28.2505 20.0043 26.9883 22.5208 24.9629 24.6091C22.8377 26.7971 20.2664 28.158 17.2723 28.6684C16.3624 28.8268 14.5659 28.8796 13.6501 28.7857C11.5954 28.5628 9.78719 27.9762 7.9614 26.9262C7.71483 26.7854 7.45065 26.6681 7.37433 26.6681C7.29801 26.6681 6.06517 27.0259 4.63272 27.4659C3.20614 27.9058 2.02026 28.2578 2.00851 28.246C1.99677 28.2343 2.31966 27.0494 2.71887 25.6122C3.22375 23.8055 3.44684 22.9373 3.42922 22.7965C3.41161 22.6851 3.28246 22.3918 3.12982 22.1454C2.16115 20.544 1.48015 18.5495 1.23945 16.5785C1.1103 15.5344 1.15139 13.7511 1.32751 12.7363C1.81478 9.89128 3.06524 7.43929 5.06128 5.38032C7.4213 2.95179 10.1923 1.60847 13.7206 1.18612C13.8321 1.17439 14.519 1.16852 15.2469 1.18025C16.2567 1.19199 16.7322 1.22718 17.2723 1.32104Z" fill="#F24405"/>
<path d="M8.64245 5.66777C7.92622 5.74403 7.77359 5.80856 7.46831 6.14879C6.13566 7.63289 5.31376 9.74465 5.40182 11.4751C5.45466 12.5075 5.66013 13.2232 6.24133 14.4727C7.78533 17.7635 10.2921 20.6202 13.1335 22.3097C14.8302 23.3186 16.4681 23.8583 18.3937 24.0343C21.9572 24.3569 24.1763 22.9373 24.9689 19.8166C25.1215 19.2183 25.145 18.9191 25.051 18.749C25.0158 18.6903 24.6284 18.4205 24.1822 18.1565C23.7419 17.8867 22.9082 17.3705 22.327 17.0009C21.7517 16.6314 21.1412 16.2677 20.9768 16.1914C20.6128 16.0213 20.0903 16.0037 19.785 16.1503C19.5737 16.2501 19.5267 16.3029 18.9397 17.0948C18.5522 17.6168 17.654 18.5965 17.4602 18.6962C17.3252 18.7724 17.155 18.7079 16.5092 18.3442C15.1061 17.5582 13.1864 16.033 12.2412 14.9654C11.5367 14.1618 11.0201 13.3229 11.0201 12.9651C11.0201 12.9182 11.2197 12.6483 11.4604 12.3668C12.2353 11.4693 12.5171 10.7301 12.341 10.0497C12.1296 9.22844 10.7265 6.51248 10.2334 5.96694C9.9751 5.67951 9.45848 5.58565 8.64245 5.66777ZM9.72853 7.26333C9.88704 7.5273 10.2921 8.28401 10.6209 8.93514C11.3312 10.3489 11.3547 10.4779 11.0201 11.0293C10.9085 11.217 10.5974 11.6042 10.3391 11.8916C9.82246 12.4489 9.76962 12.5721 9.84594 13.0296C10.1219 14.6662 12.1062 16.8836 14.9476 18.7372C16.2685 19.6054 17.1139 19.9691 17.5483 19.8694C18.1236 19.7345 18.9807 18.9778 19.8026 17.8749L20.3251 17.1769L20.5189 17.2531C20.6245 17.3001 21.1764 17.6344 21.7517 18.004C22.3212 18.3677 23.0315 18.8076 23.3192 18.9836C23.6127 19.1537 23.8593 19.3063 23.8769 19.318C23.9826 19.4118 23.4014 20.9487 23.1137 21.3183C22.738 21.8052 22.3153 22.1571 21.7987 22.4094C21.1001 22.7555 20.6245 22.8611 19.6089 22.8963C16.6442 23.0077 13.8321 21.858 11.2725 19.4764C9.52305 17.8515 7.74423 15.2646 6.93408 13.1645C6.34701 11.6511 6.44681 10.1787 7.25109 8.55385C7.49179 8.06697 8.11996 7.11081 8.30782 6.9407C8.41349 6.84684 8.61897 6.80578 9.12385 6.79405L9.42912 6.78232L9.72853 7.26333Z" fill="#F24405"/>
</svg>
