<svg width="31" height="30" viewBox="0 0 31 30" fill="none" xmlns="http://www.w3.org/2000/svg">
<path d="M4.21347 0.995329C3.44453 1.17232 3.19629 1.34377 1.82793 2.59374C0.429294 3.86584 0.265818 4.07601 0.0720676 4.82267C-0.103518 5.4919 0.0478488 6.30494 0.459568 6.91333C0.538278 7.03501 2.55449 8.92102 4.94004 11.1002L9.28125 15.0713L4.94004 19.0369C2.55449 21.2216 0.538278 23.1076 0.459568 23.2293C0.0478488 23.8377 -0.103518 24.6507 0.0720676 25.32C0.265818 26.0666 0.429294 26.2768 1.82793 27.5489C3.2205 28.8265 3.45058 28.9759 4.26797 29.1528C4.97031 29.3077 5.89062 29.175 6.52031 28.8376C6.6414 28.7712 8.70605 26.9239 11.1098 24.7282L15.4873 20.7404L19.8891 24.7558C24.6844 29.1197 24.4785 28.9537 25.3988 29.1528C26.1496 29.3132 26.967 29.1805 27.6814 28.7878C27.8934 28.6717 28.4928 28.1684 29.2254 27.4881C30.5332 26.2823 30.7148 26.05 30.9025 25.32C31.0781 24.6507 30.9268 23.8377 30.515 23.2293C30.4363 23.1076 28.4201 21.2216 26.0346 19.0369L21.6934 15.0713L26.0346 11.1002C28.4201 8.92102 30.4363 7.03501 30.515 6.91333C30.9268 6.30494 31.0781 5.4919 30.9025 4.82267C30.7088 4.08154 30.5453 3.86584 29.1467 2.58821C27.9842 1.52629 27.8268 1.39908 27.415 1.22209C27.1668 1.11148 26.7975 0.995329 26.5977 0.962145C25.9014 0.845997 25.0416 0.995329 24.418 1.34377C24.2848 1.41567 22.2201 3.25744 19.8346 5.43659L15.4873 9.40221L11.1158 5.41447C8.70605 3.21873 6.6414 1.37143 6.52031 1.30506C5.90273 0.973206 4.8916 0.834934 4.21347 0.995329ZM9.94726 7.70977C12.575 10.1102 14.8213 12.1179 14.9363 12.1676C15.2027 12.2893 15.7719 12.2893 16.0383 12.1676C16.1533 12.1179 18.3996 10.1102 21.0273 7.70977C25.532 3.60589 25.8227 3.34594 26.0225 3.34594C26.2162 3.34594 26.3252 3.4289 27.2758 4.29724C28.2324 5.17111 28.3232 5.27067 28.3232 5.44766C28.3232 5.63017 28.0508 5.89012 23.5098 10.0383C18.4723 14.6454 18.5146 14.6012 18.5146 15.0603C18.5146 15.5359 18.3875 15.4087 23.4916 20.0767C28.0326 24.2359 28.3232 24.518 28.3232 24.695C28.3232 24.872 28.2264 24.9715 27.2818 25.8399C26.3252 26.7137 26.2162 26.7967 26.0225 26.7967C25.8287 26.7967 25.532 26.5423 20.9668 22.3831C15.8748 17.7372 15.9898 17.8367 15.4873 17.8367C14.9848 17.8367 15.0998 17.7372 10.0078 22.3831C5.45468 26.5312 5.1459 26.7967 4.95215 26.7967C4.7584 26.7967 4.64941 26.7082 3.69882 25.8454C2.74218 24.9715 2.65136 24.872 2.65136 24.695C2.65136 24.5125 2.92988 24.2525 7.48906 20.0767C12.2723 15.6963 12.3268 15.6465 12.3994 15.3589C12.4539 15.1322 12.4539 15.0105 12.3994 14.7782C12.3268 14.4961 12.2723 14.4408 7.48906 10.0659C2.94199 5.90672 2.65136 5.62464 2.65136 5.44766C2.65136 5.27067 2.74824 5.17111 3.69277 4.30277C4.64941 3.4289 4.7584 3.34594 4.95215 3.34594C5.15195 3.34594 5.43652 3.59482 9.94726 7.70977Z" fill="black"/>
</svg>
